<mxfile host="Electron" modified="2024-03-01T09:27:26.603Z" agent="Mozilla/5.0 (Windows NT 10.0; Win64; x64) AppleWebKit/537.36 (KHTML, like Gecko) draw.io/23.1.5 Chrome/120.0.6099.109 Electron/28.1.0 Safari/537.36" etag="24ai-DNvi26qVLZAt-ZD" version="23.1.5" type="device">
  <diagram name="Page-1" id="0B7D9VfSzd2U0sUCZKfo">
    <mxGraphModel dx="1185" dy="688" grid="1" gridSize="10" guides="1" tooltips="1" connect="1" arrows="1" fold="1" page="1" pageScale="1" pageWidth="850" pageHeight="1100" math="0" shadow="0">
      <root>
        <mxCell id="0" />
        <mxCell id="1" parent="0" />
        <mxCell id="jQ_F4X4jPVcK3Z4kUpJE-1" value="" style="shape=image;verticalLabelPosition=bottom;labelBackgroundColor=default;verticalAlign=top;aspect=fixed;imageAspect=0;image=data:image/png,iVBORw0KGgoAAAANSUhEUgAAAUAAAACzCAYAAAD44cWpAAAAAXNSR0IArs4c6QAAAARnQU1BAACxjwv8YQUAAAAJcEhZcwAADsMAAA7DAcdvqGQAAIiRSURBVHhe7X0HgBXV+f15M/PqdmDpvSp2VOxdwIgmomLUWIhJ/EESDSYxiYnRmEb+wUSjiRATDUnsDRsWUBFLVBTsIG3pne372tT/+e68t40FFxVccQ58b2bu3LlzZ97Oeee75ZtQTU2Nhw6AaFjHH279D6aPOR5Deu+LIdfdgMu+cw7mvfgO/nHKwejdfwiG/PBv+M43RuPZ1+bj72NHYr+BB6H3j3+Kb15yLkYcMAQIhVgSzQ3BczWURObj/wpPxu3qDAYi3Y7B1ydOxX8uLEdVtwQ6aV2x4vETMeraeVizCiju8Stc8+qluKBLCL0tF5s69cXsww1cOupG1P/0CiSsLVhnPo+rTnkIX39xGs4zeyO9+NtInHUHjHQPdB6yD258+RmcGY7AmHkmRv7qOSxal0Gn7n/GL1/9Ls6MLEXXutk4+ut/wOpVNur7noaXX5uOIx0XSU1TtcyjYtpkTLxmBuarrZGY8PtxwKMzMWz6bEwaqBJzmIPJpbMwtvomjFLXn9uuuRmj1O7JGD0+V87ICZgy/eam4/P7Rk7BwtmTMLBiGsYceg32faAGN/sHs6zxWDRlIWbnD2KeqyZdg3+9wfUW5bU6b4vtCkwbPRFLrp6NmwdNw+iJ12C+VIjHPzg7nz/A3orly5fj0EMPRW1tbS7l06GkpOQzK6vDEGDWjeLvf/87bj3nbAwY3AfDvnsNLv/mpfjfvLm45byvoXuvbjjg23/G5f93Jp6d+zRuueAsDOk7APt9+xe48Btn4uhjD4BnuzQHekiDTiI0DU1ZyHSh0RCyyJE2uEWO1KGForQIQm5GmcfjPEVEYXiIQOeqoYVgORmYbhqaFWYREXhhm1ks5okyb4xlZJUBDjzPga1HaRHEHA8x24MVMmlZ1ijO88eYzaRl4TKPa7BM2NAduQsBAux96MgE2FJ2fI7wNBuxLp3xoyF9cOK2NAoKY6hO16Ke5PGjfj1xMokFnUhURgOiXYswecAAjNxaiWzcQqeenWGZNhyHBMSyHNeF7XLdsaDZJCYSjuPaJDiDxycQ0kg6rgfHTsPM1vA4k/tImSQjPRLlfhKhx/J4rJltUMeGNDmWZBomfYY1aEaEpOci5CSpOEmIHvdpUR5f6BOwOi/LIO86nk7SZX5dp9IlqbIcZhShCpt51EqAAAH2ODqMAsxoHk4cMRqoiyAZSSNlpPHIU4/hq+edBXNrCj0LuqI+tR6PzfovLrpgEqxMHGYCsOLAQ3fcif379iXxhEhKIYQ8XpJclSaqj4rMCZGLQjBiCRjRBFwzDY9m2hlYtGikQJkWpeqj2RlTmUuV5tFCQopRKj0qOnIeiVCnAiSpZVkOLaRRRephHk8CpNnZegq8BuYl6XkRWLoHm9dXEDGQ4HFZutem5VFV2jQHMZKrriocIMDeh8AFbgc8koBDN3X50hVc96jIgKq6ehx3yvFYvng5tm3YiN49OpFc6tC5a1+s21AJ26C6omWqa3DEwYewEBKUEIkQIJehEJfSJKiSSI5UeBqJyqPqcqkOXRKQqDudaQYVWYgKTSO5uXSjlTvNfaIEofMk3CdFC7kqN1mMZcAWdUj1KAqS+aQMj4rStenmiiNOZegyq8u66KyLwaXLNKmpTaUqatWgYlT1DhBgL0RAgO1ANBRHVk8hqyURc6O0GIkiTPcxAkfLwNEziEjTG82hC2mTqDwym0tVppOAdBKoSzUlRrrxCUXUoHQM5JaeIkYfLS6aG7Itjqhv8k/SpAx/n28qRcHP7+eTT2lL8IuXFFlnqhCw5MwtbRKrTcI0DINGIhYyVXn52axuAQLsTejQBMiHr0M8ebZFkiNpOCQQcQepuUgqooxCqolM0Rr3i6m2N405WXNRZBoVlJjNbenr0KkgRW0p8ml2dbKa32yWrJCjLfXfX/fh58vrs6ajWA0/H1dk6X/mwXWVgSpSHeNTpyhRaRMMa3THRRVyW4wXQxc8rI4MEGBvw4IFCxQBdkSEVq9e3fRUf45wtXqE7CKEnCK6mBlupxEjgcSkDQ8xklsMKRJFmq5n1M0i4mVJlOJk0sg1skx7Bk2X5jkaL0sUlpjvA+eoyCcdcUGF1kQgChpd0Fw+pcjyOxW55dflSH+ZT8unSIlNa1KEoj1abhkylIU9hwRPtcoihPDFdWYl1ZEBAuxt2Lp1qyLANWvW5FI+Hfr27fuZldVhCDBEQlvwwMWIWOspiEgKtDXmQJxy4Q2IdzkYXlU9XBJbUacynLrm51hgLuZRuaqTqKQD5P7CH2GkMYwk45OYIiOuyFJM1KOk5xxk9Skcp/aLnBTCUqTlL30aE+dW1mQ9d4w6Wm00bjXl9vPKuktS8wmQ+1m+tP2JhZlGKpST8gBRvTxHQIAB9lIEBNgOhG0X7943EqNOH0MXNkFiKIBDv3fOc/PQ/2u3olDvBcPw0L1PP4TeHyMs5kNqT1UoQ1c2ld1GKnGQ4b6MuMqkIRkPKD3Dsi6HCPkp43HkHkV8mpjsU4Ql5OdyXShNjvLNpzbJ51OeWJ5IXZavqqFyNhGhlKfKVBzqqesRM5hfKVddhtNodNt5tBsQYIC9E60J8Jhlp6plc4jgiFryFMmj4D8LkqZbMiTNT3/xsBfVckcE+FrDO3gz8z6WpFZji7kFXYwu2NcYgCMSB+GITgfmcrWEPJodAi7dXYe0YNHVtfVCeLES6OV9cNq5F+LdmZOxZuZJeOXOs/zMdHV95iOExYR0hEO4ZvKKHI0bLM+Qm+qQlMhAjnSSiMpy0tBdB1FqMN2lDrMj8EzSUdZjfh0RIwJD09WNkQ4Wk+nyheiaizATw9L7y+JNErYrbY+RqCI3GTKjXGuN5fE61LlYIzlOSFMaMtfVbkNRLIb+vcphRkrRULUFGfnSA/IL8CWFkJsBW5mgOflF3DDG9RsHp4bPFLeXrlir9rVGvdWAu7Y8jD/V3IG5zmvYGNsIu8jGptAmPGe+gt9vug23rboXtdm63BFN6DAEKHrKkY4MUpNtUP1FS1Cfolzq0gvnfvtq7HvRjTj3xz9hThIeiUq5jIr7fMUlnSEyDFoRoJ8AaQZsJMCQdK0wh5sm0bmKADXeYNcJA/yVkd4TnfmiJEDpVRZNJ2OUs6aQm/Q0k1CZLaII0IMlg65Z31A44ldJxgzKPy2qiNHhOURdSoeM3OQQFenwXsA/LjoIRdECHPDD+1E8+FBkeI6QDPIO8MXF3GvQr18/2tm4c1UuLcDHIk9+Gh9asbzSk+WxnY/F8yc9jxtH3IiDew+DW6meLrW/NR6qeg6PZF6AF/UQDocbTUtoasSFE3HwWP1LmLHmUXpgLcWGPJsdAqIADSOGeKwMRriY/mECRX17o8FLQA93QlmiJxo2ieMoHR4WmY3rYTKPQaqiIHS4aZX4g5V1V6OFUax9iEuG9EPPIUdgcO9eOHbg6fjD7Uks057BH/oPxRFz57EsEyGdNyVioKBPL2yrXowZNx+Nc/oNx5kHnYYD9z8NZ776NroaRYh6USo2notH6TKmkKStWRmsqfoI0chmLLpuOk4fPhyT//6qIkX5TTNJqjbJT3q4PSsLpGtgXf0+Nv3xRFhL5/K0JD97A+beeQ3OVg+R/yBdM1eepLm4pjEtl66eMD/9mrlyN/JoKy2PVY3ln93iCW1KV+WffQ3uXNn8j2wHx839ebM65a35w9+q3MbraY7W18Zz8Pwts+2knFV3Mp3nXPnpyzmnv9T9U5Rz0hSsnnc9DpMf3gDtQp78dMt/pgWSJva9Ad/FXUf9F32K+sCybCxcuhiIt01+/6t/G4+ln1Xkp+u6IrxQnKKIJtv59EjIwRPJV/D8Gj6bzbBbCLD5H1Fb1hboUJJUYtCFACNFigCxKYb/d+taXPe3Zbj+tvcx9eFVzJVG0bqtwNtrlBkLV0NfsAragpUI1WXUnFrdJUF5EWzMrkFZtBxH/vy/WLdiKf77s1H4+/87Bn+d1xWVRg36LO3PL0EIkDc+oqN209uY/esT8Jup++OM19bg0aXPo3LuT3DirEV4w6zCaitNxSZtiHSfqfx0flk60/bpHMdfv3Y6zlh5HwpqtuAdcyjVoRBlSBGgpaiSBCjT4zImDimoRlWoDF75UIRZ4RduOAETbliCM+atxurVtHlXALNf4OPm49Dr52EV0+ddPwz3MG/bJLcjrMKdZ7P8J5fktptjJWYvG40/yzlXz8P1uAc3/OhfufPu5LiTfu/XM2czLpTEYRjQX+0lP5640+tpDrk2v5x5uGLYPZhwAkknt2+n5axchgU8Z//cOXdazjU7ub+5cvJ1/8TlBNhl5MkvT3xik/pNwtX7Xa3SN9VsxvEzvgq3IAU9SuXRBt6q/UAdJ5Cxvm5EhBRJUDzDnAnskD/u9pXKD9DQkFRpgt1CgPLHsSPsaF/IjSFWwBuiF9JiNLqmUbqoCQP3WhH8eZuFooJ+0FJxLDnlaXgXfATv3MXY8rW3YV+8GNYlH6FgQxxZaUOkQhMXNhymq2pWw7R1ZDULfX51HCZEgapXXldtb46RQigSUQrSDpnA64/jgbuA0Y9dg+8XN6C7UYh1PUfhB//vWiRcD1G6tDK8RtxhccGzZLk6x0BJ+VG4/A8v4O0H78UxQ2x0La7mjZdbS+N3I+2TUh9x8cVFt6g4XT2DsJaFvuo/uPUuBxfOeASX5R5C9D8JU6ZchvxmHv0vGw3hmiUrV/oJ7UJ/XPbneZj3yJ9xxnYSRc5zUu48/XHyGYcitGAZadHfbjxuZ0O4qKBuvUeI4/9Ymr/913u8dl1PS/SnkJrB67sHt4qU/Jhy5s7mSS8c7Z+zBVqW4+Xqt9NyLhj1qcsJ0H4UUkD8d/9/4IkjnsA9h96DkkiJIqcjS44g+f1Y5Xlh0Vwcc+dYrA2/j2gBxVEzpdgc72eWqaXsz5OobduqLTG/nTfJs8JdgXQqrY4R7BYCFLRFdKtW7fi3UggwXkAmyhGgJ2Pj6Ja6BWTukfvimAkno6pmLQ456Txc99N/YML//RgTJl6Fqyb9BCccdxrmPT8P1Z1JSm6U7iaPJetEwh4VmA2TF26SACv/PRszqPQSJ52KDH8ZhAA1EqAMr7FCFuL17+FlHIDR2hDUlxWilseWFhchbKwjAQIxKdPgl0F3PSQE6JIAXQOrtlYiethQdNq6Eb14LZGMTQIUEm4iHFnLE6BNAnW0NAyrK7QPl2OhdgiGDPDz7Qyr5s7m40itNaAdmZuDMunjH9K5+PsNC+Bd2IwM2nHc3L/fQAV1Ia7Is4JSVIe263q2xwAMIdkuWEYK3mk5q7CSwvRQ2dma0xV2rZwRO6xse8sJsCtIZh384vmp6BfthyO6jsRNB9yEzlpnTD34RmiahnlLXsJ5z14Ot1sl4tRBeXJrC2sz2xTZialgKGnmy3AHTbZlqcjPNdVyk1Orzp/HbiNAQXMSlPW8HG0LGtVULJ5Xf5RpmsgyD1pSAhLwYugea2EdMfr0mXQS6aypVFyG7GVR8dkkTBnOEqNLa4SEgFgEbyZLwbY/HothfU/EqB//D6de9TKeGFOJCNM9u5DkyJuWc5srS7oARhwrrDLoEjyBN9BwMizDo6ymGmWhaddhtaQh1VXNkIVhnoM3306Zqkc4LX0quoz3E83nm1y1mHROy3WGHA0hy0CdtQ110o6Z6/naERbQ7e3frx9OmLAEF9JFo2j7jCHu7gSS64X41+93pfC5EAHVqP72FFa9gCcXHIozTu7fNv+1F/lyTgo03J5EOORgQ3QRzn3k26qN78RuJ+Dhox9Cn6LeWLNlLS559koU9DYRCkuIuSYXuS30DZXDzoSV6hPyc1MuTNNkuZbaFhKU/XmS7KYVq3157FYCFAjx7cjtbQ5xE+OJIhKQECDpSVxgm2orlSFRhVSMPS1sIMZd6YwQoIU0CTDrSDeGoYa55AkwLK1vXJfB0SwFPX72FpatfR3vvz8LMy7vgZdrbTWkBU6R+gIUAVI16vEMDgy9g4ZkEroTojk0uqksSwhQ2vQyjoTaEgVINcgyCiM+UdqpLL+wHAFq0uMsX5x8+OaToPRI02yfAEMFDsqGDsSR+BAiMnaEfBvg6tWPYEqj/9UKq1airVa+j4ff1ncDieD6eVNw8k5+pFpj1Z23KtJsVH+CAUOokxbs9Hp2jJVYtiCn7HZWTqt2u+2xa+Xk2xG3RzvLCbBLEDKTTorFodfwf4/9lI+Hh/6l/pfwg+d/qpSfjAls7tbuiACHJfop8gO9WiE2MSfpKBMilHTZb2d9EhzAf9JDnMduJ8D2QqcLKsOQZZKYRXPFjQ1nUERCNBIJmCVFZHJeD4nDJCEKs5tmBul0vRqe4qkgCKQYcZ2FblwZvlIm/cVIktjCnoSm4oU7YZQhLtyKrs67CGlUbtF6Fcqqa9d/47rzTNx7zTG4Y+462LEYtq55Hned9Tu8yuPWsV6aCryg0UhkThpapppkmCH5sRISIssgSRqFTUQsF0fIFyhppXSfE7oNQ+c1xHugdvDF+M4lDu6ZcDbubOyZnIs7r7mzsfF9e/iu2T233tnYAL/qhVl8PHfVRZuLaxrJr1nbVrvgu8zbqb/+l+H7F4Z28XoIyZNToYpQd1LOneK3ttn+R7QqJ8RyrriQ92qn5bRB+rtQzk6vK8B2aCS1Eg+zGx7A1Lm3qvQ3Vs/Hm9mXlUIUsmrMR8uPE2yNo4tGIJQNIUXCNFN8/pI8LsVjaFbaUOl5d1jKOSgxDAXiuuXQcQhQs2WsMLKkDZvkR+1HNZhGMQkwHE/AKimEnaYL2kiALiwzS3e4HrpMBhZVRvWiQlJJB4Qj8rcMdihCAkyzVBKgS/lIIuuEBMsHZv/pMgwe2B8DBh6IQb0n4I9r38Wpv34B0749Bk9ffhgGdu+OA07+E/534TdxAt3V/hIVmmWLqaCndI9D2SqfAEUOkoldXUcmXESKzTa64uIIy38hwBJuxzVSPInSqN8Gh79Mp94wFzOuH4YnJ5zg95SfcCuWDTl5J26ldFBIA/0NOCHXs37CDdJh8OddIzFpU6TCoZONG07I99I39XruDG2qvxxO+v2L7b4ece/9PBPwJMubMW9KY762yyHDP0nibcX0Oy1nyrydl9OM/3a9nJ19TwHaQiOp2TrCRQb+tPjPuPjeK/HNJ69CJEGvi8qvRT6Sn8Hnvi0c1eVgjCs+sdH9FcJLmv5StiVdVKGowNHR43BIwb70NOO5o/nV0z1tW1vuYZQXFOOWH3dC75II/x7VBDZsyEbgDZ6K0h9ehoW11eh6/1N44u4nUFpayLtDwrSpGqXHh0rsul/+DEMGDVBuqYSl90iIa/U16NGpH3p+2Acbu63NEZeOreYmDIoNwSLXQme7hre3EraZQOHgIYivWYJIcRFSPL4+nVYRoruU6KjfLF+G344g5UgMwD5lYSzeWIcBnaLYkjFQkTYxuPcgdK54FjUl+7Bcuu7i8pJtxcUvjizH7WedjOtPeAsbflCI+q3r4XQaBINq1RMZG6AdkPF6t2LILivW1visyslh1Z0458QnMfbFz6i8vQitp8Id9+5xLdxbgVfFj7in1J/azqXrHsVCjvz+MvABDBvUd7upcDLD4z/LHsfMuhfVcSKE8mXnyxkTOx5jio/AgC490KlzmUoTdJxgCNK2Rvdw+eoKrofpXpIIi6sw76VNaryzhJBK06d/evYcKr5cPD0SGHL2q+t+gUED+pOcpDS6niQrKTNE6Ss/KBKVOcJjwjxWQt2LuW6UFmFZthqP53r+toTS91yTgi7Cc0Uw//bTcdYfPkBIFKAqPY8wzvtPBX55lIGysE2iy0KnmbrENowzr7QVOn67H82IrMZfvnYy/vgWz33+ndh0xzdhb14Fj2QqAVMDfEEhM0EmSP/8J2lK2PvRmgBPfIuKrRk5CcnJemtSjPHRbr59y6AH2yRAgXiEz61+BS9vex/LMutQ6Vaiu1aieprF7RXl17mkACWlJXymm8RGhyFAx7RRUJyALeRjhchpGrY0bMDpX71MkVVRQRxFxaWoqq5mbgk1wH8kTCGZ6uptePSRh+iW9OUdI+GI20nLBx2gRlTmHyMMKb8SvLEyF5im0SXV6K7ajk6prEMjWWoqpqC09+noEV6JVdYQEq2pyNb2dHrYGoZ0K8DKbWn0Kgxhfb1DopbpcjKnWab0aUqF8sN3l1lORfUWDOEvUPfyUry3xUai8iN07tyFajNM8m27jSNAgC86WhPgsDtPVMtdxeMn/GeHBJiHDHKWcX4y1EVcX+nwkDY/cXsLCwtyuZrQYQgwkzFRmIigIBGDnXFgZz3Umw7qLQfr1q/mhWgwVOh6Q83Ndcn40vank+EkCrS4vX369OYvgaUYXjop1JxAg/npJjsSjZn5pDHUCBsIR0RB8peA5oHExl+hrDSkcjUcMxCJyns6SLUkStsLq44ZifIsw1psaV+k2yqqr5RWY2qoNkPq1Z5iEhJfVKTkEZdZ1KpSrBqN15DNysuWTHSKuiiLeNhmRpiPJw4QYC9EW+GwdhTY4OMwdFCfnRLgrqLjEKBpIaIIhERDclORWMRIIqaZRSIeUz2w0v4mAU5lKJ7EJZC4gWQxEhNd3GiY7J9SacyW04nMw38SEkvIT8gyP2dQOo5FpMnx9G9VtGae0u8aUkEMfAUpHTIuVZ+Qn5QmobJYBcSp9mJ0ncnXynzilUndfhukL9+lnr4ClOAJoKp0hJBZlziVZtwAklSeKh5hgAB7IdoiwE+Dz5QA+ZB2iCdPyM6PzScU4y9lzTe/HcDnCG7LUkzcWdkthJXL50PokMRFIhLlJ21/QjxqvzCncoPlIGE82ea+fFkq1YZFV1c6YtTAZVnyn1+6n8ljfpkVLGWqXl5xqaV4taVSFCSXHKGOyiWqvbLe7JwSzzBAgL0RHTokfkd5KZIWlt5fIUGfIBRpKKISy1UxX1NZ0tQmd/vJJE0qO40qbM2GTSjr2h0aVZbm2MjaIRrQtawQ6bp6Kj+/kyPRqQwWVdnKLWkM7ZJQr6dM16XgGlRvYRnD559fQlkJCSpIkkK+Xv7Zm2qRt8ajJdn/zGdVkA3uzZVnNhudHiDA3oTgrXDtgMTXy3GBglrnh7/MEUW+plyKxlOKix/KJeY/afMzIhH89R8zUE/Si7i2MkcvhGMUouLDd3Hn3/5Al1oGUdcjy/xLNqzDC+9twxnDOuPAgfuoHmfLtlBn525wjqHyRNaEtm9bsyo2HqGOJYnmJOx2kHxC3gEC7I3oyATYYfwug8pN2sqUUZXJYOYmE4oQAvEXwiVqk36yEIduGAgbEok5BMuUYTG6es3mX2od/LkhjD/XyQBmGWjtYv47S/Dwy6uxqUH6aV3s16MMa5c7+OHfl2JtbSVSVi0ybgoG1aC8alPa7qTtUVxUTc5Hkw4W3/J1zueRpZ+mZoqoZT5PPh+vp5nl9wUIEGDPo8M8eaKS1Ls7xHJEI+tqdkf+n3JFSTxMU0NLGvOTTHQuSYGadEB4FizPRNeeQzH8vNEYMX48WTOLWNRkGVvw0/++j7dXbEZy/VKgoAsGDOmMFbUW7nnOQUrj8WEgEiH5GQmSbSnL1WEgCc/Iwoo5KC4tVOMLkzXbENel19mlwiQjq06QMMJaVBFwhHUywtzPfZohMahNKtJKhDOlMGwT8cJSVNoR2GrGcoAAAfY09hLp4bvDechFyVySdNRXXX5svhDkJetZFAF2GPMWbIZbdDDeeW0ZNq/ZihDd3nvvuQ8rKtYjmcrCcR1obgYRpx7V9goUab1QY5ShxCtF9epKmLE4uvfvjbRTCNcl6cmwHOkTcXkeHmu6JmwHcHgueuH+rBWSoxMtRUMRzxd/FZPDg/DQCqH0pqHVHQYV0zC6tBSlo0dzORrTKnLpexxzMPlzPX+AvRl7n+8lrjH/yeSZjBAgXWQhQHGP5X0jWRSSAA3MW7gZY370ML516/t4/PVN0BwLRx5+JCQIQzgSJ4nJLJI0FVstyo13cFG3IgwsjqE4UYoeg76Cr/71JcyrzSDlJuA4QoBUn+QxetlqqI2VI0CXCk8I0CMBOqEIHHkZklaOUP2RmG69j/8bVs0vQZizY6Hi2ZnAlIWomT0bs2tmY9LA3I49gIqKOZjTSHijcPMePn+ALw/2CgL0xR8/hfxypj6kbc3Q4ak2NnGXHRhaFhef0AcxklBtVZhERbeW/046oAwHDNLo0oon65GSPFgsIyNjAJ0u0DOn4OUqD5s2bsTy2b/AcY+OxYSJC+FmlqOwMILNyfVIFBcjS9e2uFMp4gUW0jVplCViWN3lfyjLGjAKEtiUcjE41IAtMQ3Zd6kKJdQ3tzsaViyZj+GDPx/WWXHLeMxakf9eAwTYfdh7FGDzp4XEpQZI61R+JEBFhKILSYA6CfCK8aUYfqBNdUjyc0wVDfrkPAFSOqrwWjxCukkyMnCZ+XQksNIwEesURfyYE/DTv/4GPR9/Ae8aXWDbSaTemIr+sRB69u4B4+Az8Vy6M7qXdsd9Ew7GXx4+BpWlBhLmNgycewX2+fNadHfm4/KTvo/H67tQHZbS05vsu5zK7ZxGx89HRYv0yY3p22HOVW0eL67s5NFNxze5kuJacntaU/mjuVOue87kUoyfAczgfSqdPFnla6wP849R+Udjshw7Ob/HL6+pftxmPfzT+fsmTx7N4yRPBas7xq9T7rx5ND932ejbJGfLcltdz20r8l/8jq8nQIAdYe8hwFaQNkGbBJiNhFFPtaUxQV6HGXYc9Opegj9fchi6JVykarbBTjegU3EBupZ3QrwwThfWj/giPcBhPaxmjmgk0IhMzaPCi6AcZX3G4bD9/oX1m4tRve6HuOq2rvj9Y6uxpnYVKq/rhz/8fDaqMpU49dL98Z/7/odQtAp6ZRfcPftVnH/IBtVpY5sS4NWGseGfGD1+EcYtrEFNTQ0WTh9Dx4/gwz5xKnB1Pv1qYGoj4TQD840578PtjxdSGDETw6bnjx+GmSOak9QMzMRYTOe+moVTgGtuwXO8T6NursGDE4AJDzL95rG5vITU5xrgxwuqWd50jF0yA/Nzuz4eM7Bo2NVYWHOzqtug06epOtXUPIjhM29prFPzc1fP/i5aatDtr+exw6762OsJEGBH+GIRoLi3TastofxeteIv+HfvkMDMcBh1MRIYtyV0fcR1sK3agpYoxiouy0uLUBA1UKYIsDMSdFMVAfKfDIMRAjRUO2IIYctFPRVjssFCbTyLweYRWF//Ibq+V4/nX/wTLj7jQByU6IHOX/8b3nh1HjYWd0H6pF/i/62ajifrI8h2uRuvvHoe/m/kQQgZQoBhRYD6sg8wf8LVje1cAwfmVlYswfz5MzB+hK9oRlAazV+0PKeqmkHyXdrG8XNmYUbzckdNwtUTFmF5YwETcPWkUT7JDByM4SptJ5DzTBiLUwfKPR6IUWPJVO1Gs3MRK56alFOA4zFjfvM67QRtXM+PJyz+5NcT4EuPL7gC9MmuBRnKD37uR9+lAnRJbp4MUWGiFwrD1eJqvJ4EK7VRi/pMCA31aagQrDL/l3mFS0U4uBJAIWvRTXYhE+Nk6E2CZNijJInCdYtw9ZIaHHRwX2Qzh8Ob9DAyW+bjo4yHqqr52DT/txjgVENPDceB31qMV58ph/6vR7HqkguwEV1YuIkCGbLDmmXdptf0bYcJD+aUUs5mT2qlivYcKpYvyq19Ssy5Bed9eBbVoFzTQkwZmUsPEGAPo8MQoD/Yedexw6O8ELw8AXLpEyDXtQTdW7q2QoCeT4D1DUKA0j4oBMi8igGpIKn4rKztEyCTZLxhwtBRufAp3Piti3HUL2fg2Az3nVWCS6f/Dn972EbE2YiGzRvw3JskST1C0kzi0P3PxbvTfoNbXh6IC78TwyC9jgSbRQHPKb3T2uCDMXLG1Kb2uYoKX+WNGosJkp7vEm3RO9oMg4Zh5L93cnzj4dMwdcZwfNK+jYFjxrGes/BchdB2BQVZa0LMKznumzyVDulOMHywv6x4Fkva60e3cT03ztj3E19PgAAdhgDbF5NB6K5typP5wxLxT5SaRGGWqC49h/RByoihMBaBTfVmMY/pWipIgvSRaFRemrWNaizJNFuRkQygkSHVQoChCAmx0EHncCFd57vx1bIYOkWL0O1rt2LBV+bhxa8bKAwXo8z7Nq6dUYq//HE/FJb2xIEnvotNvTLYFNqMbqGVyB7zS3yr/nr8qE93jEcPFDv1qExnsWFfC5mGMhh9f4DZDw7HzJyrWzrxFqxQVzUKN0v6+BG59FlYrtJbYeAkPPvAfm0fv3Aclkz000dMXYJxC/02uE8Enmf6FODGQ8tY3kTMauFkjsKV0uym6sB9w8bRId0BSGS/X3weRqi6LhHPtQXEtV7U2AnSHNtfz9feuumTX0+ALz06zFzgj4NSiC1IUtZbkqGEE7CY5x933gvLjcKbfB566IV0OVMI3fIgVi77CJdedD4OHNofxdEQupx2rRoTmCEpvnrLZRgydBCMqA5P3phkUzFGTd/MuLIw3WHDNJGNucjGHRRpZSjQokjzxCkrBcfIwA1noJsFzFeAcDyDSCyNjBVBlhazQfNgh2kRebucH1jV8ExeyRfia2iJOZNROmssam4OKCjAjhHMBd5FqOlvrczf4S+aIKSRIw5RdPxnhMLYumETQhaV3p1Po+pnd8C94ykga8JKJun6hiCR/SRytO4WUNl1g5OWcFhMk3PlFKAqVd7fa4YhrynQQtSPhkOXmuu6BFqge+2QDKWdUF6KpLE8OdoN0+2lljSySmlaFssin5Lq6H5z23DhhFyVJmH7deaRs34xQNe20QevwLRZMzBy2KDcdoAAXzx0OAXYSHatIOm+myzkJSlN1c4f4iGs7Mijjkcq7QcdlRkdMoxFAiYYuou7/vsv7Du4D2Iks8Rx34UnvySWi9cf/T2GDt0H4UgMrpCnhKdSpJgz6Ubm+eVUKlyXbMqa1IuEqQLuS6Ls59JXdH5utarWc0tu+1v5NEnqeLNBtoe07U3EeTPmq0saOeFBTKf6C5rgAuwMQTisdqB1G+COiLDJDd6+2rpB9UXL0FX9aMlSijyW4ZKK1KBooE/PHti2ZTP6dO+G4lgEW0M61ix7DYnO+8KrrESPnj0RL0goQhUSa/on80J80pPzSs1CrIdPfk3m//frpchQha1RW7kl0SytKZV5m2UJEGBvQkCA7YCMvdsZmhRgHq3W+T9KUhPLmBlksxlo8sIjuqQOfVhbcxEJGXSB6ajaFHR0a9OJDFIFGcSSMURptis9wzaMaJhK0KAL69Ik/L0sReP5p5IPWZfVHB2q9TyH5ZWgDz/V3891tSu3VLv8vBL9JkCAvREdmgBJKs2f1i8ImqrcvPp+1Jc86MJKXCvhVSbLaydlNkcjeJhDJpR5wPLSdN1tFpB0F1pG82eXZb701lTWVMMWnOcj4L0AezmCkPifGVpW1ec+cU79jUYCyq94EVqULrC059n0Pv28ymTddZRJDD8xEWFyrOs4NFupTpBUlXJrTq450vU/8/C38qduDt/r5YfKwtIkQdZFKSojSze6xgEC7F0IXOB2YIdtfjsFSSxPRooARcVJDEAaCevVl6uQzIQQS0QQL4jCUK/RFDoTd9ZFYVECRYUGUula/O+153Dyycehc+eiHDHadMtz5SsiDKkApxGypOlpMF2mkSTlPcEqErTOc+fuZP5KRGHamo2wG0HYidDFlqEvMtiatZQZJ3IszQuRpAP+C7CXIhgG0w4IAX56IxGF6M5qMRhGDFknjL77dUG3wSUo7R1Hl34J9ByYQC9a7wEx9OpnoHtfoFefElRWmryxXVkTGcwi5UhEQQluKu8AlldmyvxgDxHDY/kSwlTaCD0V6NQf09JUDzlOVJ4jw170LLddGA7LszQ4WSFV5uCmRKcJuVlfEQYIEGCPo8MQoCitXbG8+lNr+XTprZUOD5JK1k4hEqNrGw4jW2+gSN4OHw4hzCtO1roIR6kYDVc1EZI3YURIQnKskyGxUdmRxGTKnAyf0XVDKTyb50hbFkybpOWmYdB9jYVjJESdHOh3lPjvLGZNaLobRdQrRmVoIaJxDcvi/PUq1NBpLWtNAiyK09U2otJRHSBAgM8BX0gCbCQ/n/0a04UA6XhSrWVhWklESYDkLxx96Bj8+fc3qVh/v/3Nr3HYiOOgR+gG63RzmV8RoDAjFZsiQLrA4pOqoAkSDktIkCaT5RpME5adIQGmFJnGIjkClH+K/JpIUPciJMASdAmZuLDwQtTZHqpT9+HCE76Gv76TxepqE44Q4Of1LchMjsn5YFIST280pjXG1+uIyNWx5fy4AAE+MToMAe4KFPEpCO20Ad8LhWWmkKyvQzyhYfIPv0visvG73/2SaVXoFIshakRgZmS2Bp1UIS0W5ruxUgi3qfTcbD0ihQVI1i3B0t9djDFde+GQ7ieiS+cL8LM352F1UkNBcYIHSkeGRZeYx5BI3RhvLYkvZNfyJlsUfBFkigvg9LwA/3lrJr57oI5+JTLFjuryU3NOBaY1BhgdjUZO2yXkQs8P6lhyNAiPH2B34gtJgIImEswh/9z67CUrSMQjKO9cgHRyLUo7RZEooKILu3Rd+yDtmUhn6CpnXEgzHvnPP6rxeBKgk4VDAqxc+RJe+v1JOKlmMh7OeFha9Roq5/8AlaPPxo9fsrAhSwmpUfmRAD2qQ1ejsoyGKCKz0Kxa0HmmGx2Gl7ZQQBVY14s6NWujsiEClwSof0oCrJg2ET/3fuyHl1o4Doum5iMxf/GRD48fIMDuwBeWABvRgjxy5CULmryTN6rrKCzsBXquqKzeyPw6unYrVdGYPSfMbGFkMn6bnxryIgSoinGh6fKCpAT0AVF8+Nfj8fNfnIhe6XXQEi7MAw/Fzx+biq1/uAUfJFeS9J7HT7r9BnfddjVO2edIDIj0xeG/e45KsAcSbgFJjsck1yOybiauOHASZqeKES67D1d1vxa33PaTFmHc82hvOPyBg4cDi5aLXMKcZ2di/vDBO5yeJiHt/TKpFGflEhX8kPJz1C+LTHmT8PXb10lQMS0ffr/tsPjTbmsZlr4ROwzPTwXbRvqcq8qaQvOr8Pq5Ovq7mWEyxpTlj8u/BqBlWU0h8wME2B5ffALMgY6rT1yKvPylIQRoANmURWJ4FX17d8W///UQNm5aCcfU6K7KGD+dKlACZfnj/ZQLrArwVOeHQQIsevwf+N3XL8cV8VpU62WoTyYQTXfGgBMGY7+F7yJZ3ANuOoWMczceKD4Nd7/zOla/930MvOkDPIEsNppUgCTU+oIyWKVxFC9PIFKQRnJbHEb8Vjyqj24Rxl09yNuFww+1HQ5fMOpKPLDfzzFixAhMXXI1Fuais7SkLSIX0t4vczrGYscBTgeNnZ4LwtoyZL2UMennXlMZ24XFl7D0p29/PfzcYXj+ObfgmuFTfAU7/UqMybH3qJuqm0Lztw4Ey3rIawTOekvC8zd7DUCrsk7rYC59gI6FLzwBNnqsAqoXactTdMgd8kLycBhYuvQFXDnp54iGRnH5R9Q1LEAsAdTXpyD9HSUkJWE9dQwtPyvNoSI0ZYzfhjpgQBKlmS4wbapFz2FZLmI1lXAKeqJXdRhhsy+6lp2J73/rPAzu2hVG554oNlOwLIn+Uk86JRNLHw39bYn/rHkGb34CWnoMfvqdI7cP475dOPx/tR0On5AABbNOfwsLJbTysEGqrIppo3FLa75csVSFtB/lnwyjxu44aPyKWRN9FdU6ZL0Kv9+8jNZR/3YQln5n4flJ4FOwBM9KY9/Agf6xHwcVnv9qTFTh+eWw3FGfpKwAX1rsFQqwyW0VDiQBcl0GQxu6hggJsGd/oKphHp3dQlTXzoceAe6540MM7HsCXnh+EaqqeRxZT+bjGo0zP3wCtDQD8Ynn4NI/PIkHI0mYMkOErBkhAdZZVXh3WA+Wu5nnWYcN1R4KjRTqN2xBuAsJECmYlgcH9ayZECDrxuNT3JKwW1q4il9AKRCmtYX2hMOnEpq6aByuOJXEN2k2puMWTObDL6/1/cSRqqiixrPMtkLWf2Zh8VtgICbdfDMmsb7TJjd3jT8JWpcVuMABdoy9ywUmPBmUTCg1p7swSIDCj6K+IkYDTJPEVQl8d9KvVEfKRRd/E5VVtdwt6pGf8jZzGc/HQ6TdLuJw+6NTcM759+C8Wx5BZbwz1ttVSK6dj2sP/g0OufJMWJESlhVRxJoJydCbGLy0yRJSiIU8xPXOyLomikIRKkpRpmn1PuJwuAsrp7Nufp1boL3h8AXzZ2J27kEfOGYYKBsxc3iT2mrEoKEqpL1fTgVF2U6C1u8gZL0Ki//v5mW0kxB3Gp6/QpovlWIbTLd85rM7utBmkNcAsLzpeYLLvwbgk5QV4EuLDkOASsXtMuSYpuOU+qNJipoOp9Px5BVqMt+WJJO012HZ0kVYvWYDJn5vFCJRHXf8cwaKikuo0lyfAEl4MoZP5ujqLEsIsL5nLY765+t4Un8Hl8dDOKj3MSjd/+dwpj2HP57RBfskG3h0FAbd6qwiwCi8TBYoyhGg0RkmrBwBsl4FQoBmjgC1RtJuifaHw58+ZTgeVWHqmW8Epd+UKRi+qNk7QvLIhbSfmg9bT3e1zfcRkaymLBrfdsh6ljHt96FmZezYjW6JnYTnJ8lOzKWPXzScLnQTc+fD4/udIM3AeshrBB49LHfd+dcAtCrrxxMDJzjAjvGFCIagiG0HaOLNkD8Tg6aT9TS6v1vXx9BrgAfbMeDQZLierh9OotuGR56YjfLyrrQSkiXw2DP34dsXjYdhJeFJxGYZnOdSPnphkpVL19dFj6iGeq0OGctBSZWDhsF9oDXUM0sRvGgGhW9nkB1egyKjP7bpWZQtiMLdh6SIt5AI7YeF/L05xKBSfDuE+v1NlvMmYubBVJBZ6KIEv4gIwuIH+BgEc4HbgcbZHG1YE2S9ebos5VjflJ8rMztIgnJhkbBBlzeLDN3epAWsrQJWbHoDi9dWYMA+Q1BcFoNp1WPjOrqjJD157SWo0mQ+sJTPFNhUdhbLtEN1qHcyKHKLUYQE6oqjQH2dBCGEYdchVl0Hq28aWp2ButptMGotZIZQBbqsj7Mvas0khpI4M/Iazn0bWM0qREIHkvwSMHiOLw7o9jb64kFY/ABfbHxhAqI2wa+uEJ7vNvsSUNoAPVIV6GzqWoRubxTf/PHbqE0cjxKquVLdohKUecJ0dj2d59NIlBKMwMXA7ml0KnoTp3/lSPToLmQkk95oVH/Se+t4prJYyEBMCyPLMkwhNsNAiCSrObYyUZ/KNAOuzCPmP+lUcTxbKJSkLOMODZZpKiNFM7/UVUJvdYivoR0gAV41CeP/9YbaCsLiB/g4BOGw2gHV/ubLuHYgn88nQPUaS1kPZbikO4kYU+KKiEDCct2sMpskJVGfJUCCQeIKuTxWQuZL+x//SQgtGRcICYZAcvTR6GOzfpKXxtOrlkb/f+OSelT9y69JzdT+3FrzfXKt/vn8f9JmGSDA3oiAANuBSERcTyGZXamOTy/5hkCHBCXvBJY3vxnS20pO0aj+HJvmuNwvQ1KEeOS9wKI4hezo7so0Nm4rIhIyZT5554dA0nwIgQl9NS1Var4KNJ/gcsvG433zj2/aLxGw8uQn+y1T1GuAAHsfOjQBknD8p/JzRr4ajUuaTxw+xN1tnda64hknRPcUiJLXxNTrL5VbTLfT0lTUFSEeOEyzUyQ+urihMDOSAGkhz1dkGjM1UZNPVAIpzX8REiFJuRW1N1cZRW65jVxOtT+fXRk3ZOmn+8eLGgwQYG9EEBK/HYhGo4r8VGVkKURIshFyaFwK8pJLpfj5/Avg0o3QDNRtfB2F3Q6EZsh8XhfJ9RUo7jmc6lAiMvvv4tWko8QIq/m+qo1OAhmQAD2ypMwEETqSM+QJyidg/pMlExSRShXl5GrD325Wm9zxea0ox8pn7ni1zz9ezmBJSJoAAfZCBC5wO6CILEdmivxaE2Bz4lP/hVr8dkP1j8sw3dkI7ZW/D0fGNP1RLPSso+5AHP3dOSqQqWmZCFP5han85M1v4bCu0izbhE0FaZMA5cXm6uXmufPImUUbKuJSKpLnk315JpO2RK77tZckqb8cKx+K8lQZkl0cbf8wv1xxtWUp844DBNgbERDgLkBVRsiPUC82p/kvNtdJSKQhspKf7sJgmuxzXAmCSlXHNJ323v3H4vCjj6GqLANinVjSKtw/62F87avVqClfjCjKEA2VwSRJCvlpioRcxLp0hVu/mWqQ7rKoQY1LXYPB8xks1zU0ONyWIYLShBiiatTUOz2oPGnSwyxjBsMqkCrdbm6r4KqKBLmQY1mmtEX6nT5yqbLPn7YXIMDeiD1FgC9Vv4nXGt7GovoKbMpsQtdIV+wfHYxjig/Fsd3adsE7DAE2KjxRe/4askJQ2SyVWgSRiLy1zScQRVy0aCyGGE3cRwl26llZgDb39gNwzoXfgGd2gZftDLtQh12kY96cm3jBMSQiIRUeX6SYkFCMRBqjEuxz+iOIJxxk7Igyh2kOSS/C8qOmDZuK0Q4b0G0qNqpFzU1Cp7l6Aa2Qx1jK4uEoEjTV6yzBBkmAAul5NiSytKSTVF1HiJC7hTAD/guwl2J3E2Bttg4Pbn4C99c/y2fWUVyivMiML6JCmRDOLB2Fy/qfjbJ4y3n3HeaxyxOgUka5bYnnJ4QhS+WKCjlKOtVSmOkSfj6byfgXyX8SdDQciVMtxkgqMWjRGPSiOMLxAuYvxiEnfBfHffOPOPac32Lk6Osx8tSf4oiTJ2O/g8cgSzLaUNmAejsB0xOyDdGlBuIkujpzDRKhrtiqs2wvig3VNgrjYSRixbB1El1I2hGFyEIkahIjCU+pVKa5GuspszxYnicq0rT8127ynzC9UrWfPiR0OzAHV5XtKKZgqzh7u4xPe3yAAJ8c92x6CvfWPg0v6iEcJgfkTEv4/OFEHDxY+RymL72PgiQ/vM1HhyJA1Z4nkkjcQpKevIhIVJN65ST3i8lC3sERZrrkz2aycHhRQiSGHmE6SYpEBY1GdYgiEmGMBKgXoVuiDxLJGpZHCdcpApSSeIrTMLoWwOR5N1QmUWfH6cby5vHORKgQhQC76x/iW+URDC5KoDQRw8Hjr8G9H7qor05QIcbgaGHYZDNNDyEaEZUqQ29kwDUd65D0NOcIUMidBKhcYzXdjscIuQfqL0CAT4R5VfPxQM3jivykOUwILxQnT9BkO58eCTl4pGYunlo+N3ekjw7z6IkbK4QmhCBLm9ullLq9evVGp06dUFJcjKLCQiQSBSgsKlKT3RNxUXu6TyKqFBIn1VcsUUKWLFZvXLMjJCMVESECjWSlkSCFcRxxmV3peCjiYRKqyqRZ9FZJwIQMiZEZIybzmKHuJMWv4I1tDlJJCx8c9wwu/N6tWNMjRWXYBVurPkAntwBbqAoNqsH01lXQCyPYui1FUjTRKWoyPYrioiyyJRlsqEijS9ZFuLhMvR/YMFv+KgUIEKB9eL3yHcUXAhFRbkT6BkiCSiz5JrBFiDDfvM3voL6+QaUJOgwB2kJIQoDC2lxatoU03VshRiE4uajmkDYAaQc0mF/i+AmE/GQtliD56SXIhqNI8hfAIkkKAYKEiEiC+UiALNeVd/UKAbrc7wgBUseRAP2eWXknsEbiM2BFbNjRUiyvr6J76yB2xFdheBZqqp7F+YUX4Rc/+xXCZRdgSTaJxAcP4brxh6KwII7Dzv4R/rqgFusqUyTACJ77y//D6O59MPLQMbj8putw4IT/kMBJgMaryoWcrMLQiytZsV1I+iYnORd2flpuv4SCr2DamFxUlJ2EzhcsbzxuJ3H3KnYUup5oMwx9c9DVHpN/c1vboe4DBPis8E7yI7XULZ83xIRL8jPLmpvkWWotRbJBQhL76DAEKDJVucGsuCylF1VUWiqZVEtpU8ujob4ud4H+RQqE/ES8ubaLGOWvphVj0zagxAsjgiG45vpXccWvX8Flv3sZF/32VVz0u//hvF/NxVk/fxYo3wfr1q/lOSxESJYGXWyWQLIj+YYaEEktQjz7NL4xsh/idIH73liIB278HgZ2XoMM7kZ25M/xcM1NODOxFGMP/w1OnOFi8/r1mDPjSDxy0gS8Vt8VVdV/xc9+vAg/fmEb6q1FOGX17di05h15FTF/neTaZmDRsKuxsMYPEdU6JP1zuev0IWHnJS/3X70E40dMBX70lsr/4PAZmLpDpvk3lgzOlTt9GGZObOvlSTsJXb+jMPSN4LGjp2Lobc/6sQh3EOo+QIDPCqtTWxQXiAlHeGk+JzIjNtcBIktFfvTwZLnRrkF9umnMbYcjQLkQWcq2MHmSBJhKpRqJrqG+3m9LozGRKTQuRflJHD+Z9hZNcEMrwV8ezOL7N6Qx+XcvIVtQTM+3kESWoHGZKYJeH4NbxSMrlitXurioEFHpqVUEKP9IgKBcjvaFg6/gwfc3Y0XNRmx99mc4ff8ChNZ1Q3dcivHfOQqjnRiys6bhuQkkwMErUUa1eXiP7+L6S6vxv6yJngvewoILr8FXh8rLmT7Eaed/C9l+R0JzqTTVtLxmoeSJ1iHpl7VgqmZ5JTDoyHG4YpQfkWXQsDYj/OVwKcb6seyBgWMwjjS6XbzQOU/tOHT9jsLQKyzCVJLfsOnNXq0ZhKcPsJvRX+8GOxP2PUiSn5tylWeomtS4LSQo+/Mk2Z2eYfNJBx2GAJtDyM6lyVIoTirc0NCgyFCIkQyp0iVuqf8+X8nPi5EI0BEH0VhnmJ6Np2f+E488eb9ami5d1rqtWLT4Tby9cC4V2gfYuHUJwp1crC9/FweOfQQNdXHVHidjCtOkPJfa0QBdaauG53ToCgOFTJFOjqzOXxSjnjniJNYQbD2L1BLA7FUCZ9MAbIlGkYm+A9cYit7hjVj4v8WUo1tRu1VH5y7dkE1FUVKSYL3kl6lVG2AbIelzlNKBMRzjxgEzb5kjv0c5fJah7gME2B7DiwYq8uMDq3hCzEnyGaYJEUq67LezPgkO1gerHuI8Oh4BCrkJ8YnKkyeJZvKiRAXKhUjvsJ9HCNAnSiE/eeZCOqUuCTAS6wSTBLbk2Zux4fWbseyZm5H1yPo6Xer0Vrz4/KO4766/4Zln7seG2pW49Mpu+OpP/orf/uFaGJaMzyMBkvBYEumukOfPEWA0hKJQWM0SyZAAYTQgLAQY0kiAJuzvj8LZN96G22uq0K0miopXZ+Ffd4RQ3qsL+l18Po6Y9gBeprpc5abwzFOvwaneSgLMsuatCFCwg5D0nw7/xqxcLL8KkuxMasDt3NJRp2OHoet3GIbex+BJs+mYT8WY6fkX+Qbh6QPsXhxfNhKhbAgpizyR0uEmyRsp8gfNShsqPe8OC58cUrgviuIdmACV0iHBiYkrLCZj8hp7h0mC4v2qYTLKcoqQ+8hdSFshpLduRmFpLzRU1/EKlwMDesLN8hch4yIWK0N1rUk3uTNqtmWRyJRg0etPoX7lBrz56od4f9VHSGWTiJHUtFCWRFqP7tooVLkZHGEVICVuthMiUYbQ3RiDjajEwekwqqvTKI9cilvmD0LdJYMQHhrBYb83MeidX+ISg+fsNg5Tp6VxS9/OGGAcgiUFY9BgdSWBRlnvVl9DWyHpPxMJeCmQc62l2XDc9DZesrSz0PU7CkPfDKNuno5xj34Xk6XRcCeh7gME+CxwfI/D8fUuoxvdXyG8pOkvZVvSRRUKb4wtPBmHlxyAgsKC3NF8rGo62FS41lAqsDlIdsIGspBdaq9a8oLJjOK+vjxlH+x77s34+3+WIlMEVG6uQ2GiDA311ainXfSNr/OmZBDzCnHfjIfx2/93MgzPRNrcH6lwPcXXvoiH41SCGZbJnw811S1Kt5o3k+eSwF1ROWeExBUJSecxPFvmInsshwTphZRJXsv1Z53EwxrSmktzUJQtgPn0Bej8v5OR/NWlKhKN3doNDhBgL8HunglSna7B7e8/gAcqpflFhsLlvMicCc4oOgVjOx2Dwd16o7xrF5Um6HhT4VphhwTIz/weP4tQoF9GWeFGrKzvjTPGfANbt62AQbf1lJNOVb3HYuVdOmP9unUoKy7HmhUbcNNfroZLRde7/wEo7CZjp2Nw5aVGMrw5JMNzZAxRGCLUHJ7f8FwYVIISXsuVITgkOzHNMWk8TvPnBrskPJfkppFc9fAKfPjffbDPhQ6Muo/w258ej/cHbsX934vCkWl5qic4QIC9D3tiLrDM8Hhq2QuYu+ltfJRcjW3ONvTQSzEwMVC5vaL8ysuKUNapDBJDII8OQ4DizrbGduQnBOf/V+uNBJhbqrnCIZ1cYskdQYaqbcnqTXR90/jGBV+HoYeVqTm45Bubqs2iTLv/4X8iUWRhwKB96VrHEbKzyqS/RcUocHV4Ds3gmWkhx1XvBnbEHabJXF5xxT2rgUowCU1PQDMSFI6UhlEbTkMJFd4iPHn12Zjwz5UojhRj2Df/i5/9agRGUYVaUQnq4A/ADhBgb8OejAYjg5xlnJ8MdRHXVzo8pM1P3N6iosJcriZ0OAXYmvR2pAybE6BA1oWrlDYkOQlBhRNFSGYdrF+/jqqvC2pralFD8/Wj9CDLYGe6yFUb0adfV3Tr3gvRWAGPlQHRLIMFqjHWEhlGVB7/q4U0QtKk84PMx31SbynQ5D4LIT3CZCpAqkc3RDI2y7kvi1J3Feri3ZHZtB5aUX+U9IggWVmvos60wf8BAuwV2JMEuKvocG2An5QAFdQ0NioyWbIcUWVqHrEwF8uRKCzSGyTBFSSgQp4yZSmkKO8LUYMnmSxDWwTNP6V8GWsoA7ClfMPw3y0i835FggshSodNfqm65W1LvZxdwv05oThsWtjjLxPNDrlqELRhS/0CBgywd6JDEyAJp0MRoKB5lXZMgEJ1rcEUHuu/z4MmpKKObypD4vP5U+e2Jxw5TJ1b+Eis2XHbQ3o+uJBjSKjUg5Dh080hZCmutrygPaQJObeczicHUyMytalNIkCAvQ1BSPx2QHpwdwU7qrTShTkCFTKTVd0gxVAJiroTE3WXV2pCsA7P7YovrEhPCvG7UzTNYD4Ju8X6KSLzQ3G5udda2hIjMEuXNxpBSGIWIqrMclOwvDSLIeF5MuaI5xSii8aVudkUHDNF9SezQICwvL1u1y4/QIAvDDqyAuwwfpcQ0WdjEl6KWizn/uZDaSlO5FJFjskpQ9V5mzu3RmITZSi7fHL090nfrKeREMMkSc2CSWITtaeFChCr7Y5ovADLNy5HrODvOGLS9VhaoyPjvc1ySHwkT7nFfr1YDl1s28yooTqunIjlyL8OKMIDBPhS4AtJgPzYLq2FCckp8wlQ0mSQjCIcIUduy7pApXNV1J0QoG8+CQpEmCkCNOjOhoQAMzxCCDCOWN9TESMBrliTRQzvoqKqFEPDSZTHXmIBEZZLAsydSxautEFaaUWAfoxAki7/BeIvQIDPBx2GAHcrhPsaRVYztZVLV1SnkuV2kDQhcf2i2LQthk5hD1HHg52k7msAIvUaSosKcfdT96HgspOgxb6KIdsGwtA2wIxlYJedij4/HIIX5i5Abd1GGNJbLC9nDxfwPB70rITRt0myErNMU6fVxA8OECDAHkeH6wVuL3ZUaUUlOfWmwIxNeZsfJTquOfHIuhjpj+pMAptO/psDq2EbbK0IDi1suzCEDLO1tDpk02vwUOU8VD22AMVOMZBcj9D5++Bvl4zGYcNPxMgDw0hvdWBHE7BiBoxkFcLJLXDjpfDiZbAdCw5VoWGTeCX+fnPMmYzSWWNRc3PLgFMKO9u3RyAxCWdhbC50V0tI6P1ZOL26rX3twc7KDvBFRNAGuBvQnLq2Q55L1FI+8iYLEp8yf12SZV1tizMaopvqWbBcE64XJpeWULFFELZIhrR600bhFgc33/IP3Pf3Gcg89j8UI45NzlYg0Q+1T9Xiu+fPxPDhv0J6cQy2TtfZy0Iz/XhkZjiONyP34senjMTFP18Dt6QATnHr3uEAAQLsCXyhXeDWJNi0rdis2ZKQVSE+f6sRPhEylUvpqUXI4qdFdSYEqDGtELoTRtikkrNs1NNWxVbj8B8NQ/xrPdBp1HDUO5vRPZJArbEW3c7sg+jX+uGQqw9HdjCoHmXsoImQmWS5HiwjhmPmrUTVD+/Fse/di4rqLdDrmyLUBggQYM/hC98GuEMl2Iz7dgy/JziPxkMUKfpDXyyZLkfX17S5kbHowmZQnI7joKreOGToqaibuRU9zjieB2xF6egRSD9Wgje/cTCuO7YApVoGli7zgkOq3S9aGEYnYw2mPJTBRSN74fBLH8d/Z/fifv9VfRXTJmO0RFkpHY3Js1RSIyqmXbXDfU0Q91HC5efL8cPp51ExJ18GrVno/IppLLMxtr2U0fw4CWvfdpj9Tx9ev3l92g6vP3l0Prx+gACfPb7wBCgQDtueCJsYUO3jh+r9VZZP9JEfDqPW8x9CgC61IN1eU4wk6CkCTCMrc33DvfDKb26Dfkl3nNpjf7rNgzCoyEC3c3QceOYHGDFsCCozOizpDSbkHSJpO4m6dS9hY8HXcWxXC0cPPBPvPPsIvHA9Isun4jvXA1cutrAi/SBO9V5DQSqFdFUMW9f9DZf9vAG/WuIhXftfXFRLRtB1KtMsHLrn4snLS9pDqThV5gw86J6Nu5LrUPvB/0P4mv/guWIboQ+m44dTdPzkg2psqf0Qr//Mwt++9y5CmolDBh6LGXMegmV62DzrGbjXXQ1zyVI4BXGY6+fgqf2/ghOclHrvsmFKmyUVq3YPVg66Bd42E+unD8JT378TK2wTZtpEHf+sokaYdXoSNxz7NPa9cz2SVfV46+cH4rkRv8aTzjbEKm7DGectx5lvr0NN9ba2w+uPyUWYDqJoBdhN2CsIsD1oxneEdH+0IsL8UshEFFtIQzpNgpFOD4cK0HKR9cJIa4VIZTujIeXizAsuwKnaMTAsgypxCMI99sFfJxyKR547GoVl5Qg5DiJmgyIo0yiA7kWw5sm7Mf3vY9G5sByFJ/0Or/5nFua4IWQq1uDtC07H2D51KHF64StfGYFU1EOsyEPxog/x7kXn4qjeWTQ4nXH4ufuoevK/dFrzW9RJ4gbMSAPCoW/gF987CT2sKLR+QzEYlchmeA1rP8Ibb/8L4w8oQ7dO++HIs+/BK8s+wlKe2zzpeFzw/hqsjcYw/zkH+51+Bs5ZOhfPJRuw6vH7MeTMMTxNDPK+ZT0a5Q8Az+lejNGnDUVKt6D1/yq+Zj2AZ9eYiEdkRowLl4SsP/M8/nL+ZHyrrwz1cTH45Mvx/Uvewto1hcgsXYrXv3ElrhwQ4w032g6vn3+3SIAAuwlfHgJs7BkW2pCOCSo6YSaBIkIZpEJImuubmZG3zslMkBCyWRtZ20LWFSWXQipVgnrsj2SyDyorh+GrF/bHT08uxkHDu+LwEYNQUCDtfzbsOFVZmARFAljvvYp5Dx6K2ysXIVWTglmVwbtTXsezs0muVi1cvSvSVh06xzYhQ1fb04aiMFxLkvsIeoRKry4KaS30TOlwIQtFpL2ynmWnqeRsFMVKEPM6IZEJI0V1mI2G4RSXIVbtwQgXo+Cyx7GxYTW2Vq5HzZbNWD7vcoyI6oiET8Alg57FvyqWY5XRF2P7dcMxVLFvPpfEB8tG4pizSHz8UxFC502Bnt0HKZ43bRYhkUwgHLGhUfnZvIaUuwkW94ZsAwXF9YoIK1LV6j0rJaupno1C1JYVsgyZlcOc4ThvvzBqc+TC69/6XG47QIDdgy8NATbNtvCJUAixkRNzUGkyEFpmhRgaPKo/M+nASruQCFvy5kwx2wrBNkOwMhGYqQJk6kuR3HIoyooGoXevASgr7YywHqGLKsRQh5AlU+dC2O+Ft3HlsAPxHQzE1voa0oSBnqd8Gwv/fDvWDj8eZ975N7xZ0QerqsL438LnUWy9i3WJGLoOuhaH3vkUZte9hx7ecjz85iLEt2yFnUnACBVA86iinAjS8t4T1CKrubwGuukml3U8fykV7KkjceKdv8U/n9gMzS1EfOtCLFjwPom2DDVZqs4DgPen/RVLB16MknBvnHTCOLz4wk34aPEQHFhBAuV9kbeHZgz+UBR+iEjhA/jgyfVY1z2FTU/8Bfd2Ph+nHzgcxVo3JMIGidDB6mMvwqX/+g1WbN4X1VYD3mqYgT/MKMJJrK936EE49oGbcPfSJL8b3tS2wuuHbmzRhhkgwGeNLw0Btg0l/ZTlRCAJkORHApS3xEmQZitJFZchAZqeIkGKQK6HlCkCTBcgnWmgIswipKdVHni6IkCDBKin6lmI9CiH8PBjN+Bn512BLfpGFHYuJQHqsAadinO0WXgZ5+Oq33XHbw8twBEDR+HZ6q+hH3qgtD6OzT0GYdqfwvj7vieguP8VeGrrQRgeL0BBrCxHgFRRTpguuo1qEmAm5PAa4tDotodQh1hNAjHtTPzrziMx6xtHolOn3ij+5gy8W9wVGW81VaqOg0++AOYddyFaPgieVYWGkSNw4u034YWv7Y8BPXk/+Jfi6VTCMmLH2g/RhvHY+urX0Yeu/f632Rh/y+UYWLmR5+lO9UsC5LX3c8fiHx9+C0//Xwg9e3XHqCuX4MK3/onhpdvg7jMJd9x3GB48pCtKyzq3HV7/pmkYN3Nisw6aAAE+W3xhB0J/eshl59oCc+aFLBpJyzOUXfAzG0aSCs9MI2NlSH5+AFWbysrJulwKKXokSptusoM//b0Kxx+4vypZedJkQ5eM6c9NNrC5rASD1q+C3s1BVaYrlWGUp92iXr1UnSxH7271VIYO1tdWoXdBHVB+KJy1a1HUpxeMlI01Hy1G4eDu6F4cQqqhK+rXf4QCKk71ilC6p5u119A/cizeN6twSLQXauxXUOodjhcz63FopBxFJRq21RSgvmo9OsvYwy7d4FRuhl3cDVq2EvH1NbC7D0JxEZCqr8O74SUYsnEQugzqpN4DrBQzibDSWoeBkf2xpGEh+hQNxfLqNAZ2JyGT+NfRhS95jwr54Aw6xXqjOluF9MaVKOkzHBvXZdC1RwEK7Rqsq7XQt0cYW7cWwRDFrWdYeIC9EUE8wA4GeY7VR+MYGJ8AJcoLHV6Sn7R4GfjGz1xEkhJUNYmkmcwRILkmLe8adUhuVIJ0h8Vk/fYH1uHofQ9QKlDeTyyTitWcZAmuypKzVGYmTXdZuqhEnkNmndg8u6lGY7usksvzkxBoMd1GRLeQdTRkaDZNXqCk0Q0VM5jXYK2Vd88P3dFZNlUlj7N4nESikVD+Gs+veSRsZFkLk+sRnoqmLpvOuX/5XBXFyPpxnR4vXeko6xUlwdNFdU31oqg462uyJLGoE0fUjcHkuUye0/XSJOMU712c2jbOa5EfFdZXron15M8JbF63tIhKvW0vC4vuryEBZJkeYO9EQIDtwOcREUWe+/ynLD2Sk1iID2OIxDF8+C9RvbEBUSSo0mSICRUfzSZ1WdGwehmSK/N4tTp4Wj1ef+v7GNZnAIlA+jxJLBJVgSQg3StyFltmmfBoKV8jCWokYHIDXCogGXITkpD7YRKmhNlnukEyJmWQJPw1EXoSmZqcogI2kG1ypMXj5NBQWIXWkncNWx4JUCLS0KTzQsL4uxprL+2DPHeIJvV0eN/zUXM0utBClvl3LTvy+gAeL+rW5T6ZrRfm+R2N+2hRL6rMzP0TcpVOj3CImpZmM6/8DgihGnKMisAtPew+wbq8SKmT/OD4SjzA3oiAANuBXY0H+Fmh6bGTp1JIiw+/K8rJQL1Tg/dXvINoqBgxjX4hiUxIR9zNkC1E4W/Sw6WFSA4GhvQfAk8n0RjcIeQnbCUSS8ks0Xp0s0XtUKm5LMOTAdZRuqMmVVqMao0m5VNCMjtN3GgJr69HWUMh0iaTGIYS4FW1W/I8EYlJSDPNrHopdCjM8iK8FnlfKMsXciUTQWP5ugztoVk03aACC5O0ZOgKiU7GPJpkLs3wiVHIUChdvQuFJmWIRakOJQJi1snQ0nCoJoX4I7whURJxhmVQKPO0ISpZ/zt2eLx6nalEwxHCJ/mrcuUrCLBXIiDAdqD529p3P5pfMh+93GZIuaF0/TJ0O7M2YkXSs5qmoonyeY82HSZqTV6sxFUhB8VxNCtjoiBaoNxYMZ/0aGpBN5lkJTEBmwKtMp+QnZCADL2RngbpfRZWVezKsmVdwmrxGHU886uQXSxPzq3Oz3UxIat84FdbypU8NNFXPENOmZKAWB9xOP2XOjEbj5F2Sp37ZcSepIsK5C51ydIzroic+1U9pQCWa5DEdNbNkTiHJE4vR4ByPp37yaPKZF2sdX2lPVHqJ+9YkdcHBNg70aEJkH+Q+cf6c4V6F8ceQ+6S27hy4Sr1hjqauH4Suy8/PIZPq2+SSy35QPOhz5ukCNGoB10ITKU0nUbUj7w/RMg+bIjKFEIQyhDikdBYTaQqSyE5/013PuH57xixFckZtObgbnWevEmCnMvlfY2od5fosCWgg22qqNaGEK26Dvnv1zOkrsmvtZhFFSrvOtHDBvNL96/KrEx+K/xbwQ9lkp67gvwyX1LunsmnfOSXKh+NK+r9KgH2TgQh8duBPasABc0uu9mqelRJOkJ6+bYwP13UlKzIw60Scqkq0f9H1Sfv/lDqSaSV2pdHLh/LlX+KNBT5sTSeI0Q15bcwMo0n8jySMLfy3KLUqcsj5Q11dNNFwvkvaKKrmivXr6k6qnFNIIcKFOFKmtSB5ruivjL11amoRKo1EqS49OraeQ5VZ5WP18Y6y8l9XckfB9ZXUlzuzwlY1e4nyk+qKSb3jQu/VrmqyT3IX7vsFaINsHcicIHbgT3fBrj9ZfvPZu5pzS/V00tj9VxpH9RJUBLhRToTPLqy0qEBgyRDQtBlyItN1ei3deWVjwLX5Q1yYSqpRhdVEZLaSYIRAqQbKe2ELMuTUcdChnJiRToewnTDIzRHZpjQVBsgmSavEpuIzydDGV4ib8AT5WhbJkmN9aWJFyutbmGSnChBh/tsKkNHepqlhzqiIyzvKuaViesq5/B4Lnlrnu3SVQ1FWd8or51luln1snib5UXDMgdYQ5bVNaWzg0v1AnkysJiqGfOqpaoj0xQBklJbKdoAew8CAmwH8kprz6LlOeWhbFqTB58PLvlIemc1Pty+QqPllJt6Cbv0gJCshAD52DOzP+tDdBk/aFKSryjzbWHyJjiZxCYuZ16dyRF0uEkmPrHqLl1O7hRV6dOknC9Co+usxitKMFUhUpdlClGJJPTrnydC4Rrx3JWuZBFCscqTp4oUp1txEc/heXJNYhK4gUpciFwnpUlvMfPKUt7eJK8E8FhzQMYvxphucn+WPwyyTwaPsy46y+P9kBfJSzupxhPLNUmvscAnQP/+NifAtl6MH2DvwJ4iwJeq38RrDW9jUX0FNmU2oWukK/aPDsYxxYfi2G5tu+AdhgA/P+QezMZP/+EUyOwPm3JGT1ANJUhIVD+eIyaKiDRj8CGXtjRRayQJj2pIXoBOJiAxkkikaJKSEKUQlBqOQnVosiiLRKHLPiEtIUIZukKSsLgZ9sIIu2GSEAlE1GauPv7oOao4ZFlmVvXgWtJGx7INjYWqS/GvQSxPbCFpX6NprLsu18AyJHiCtG9KB4awYohqUCep6XqMKi8Jx2vgDRAio7pUYwmFGEl4GskRMZYf4/VKkFeSPo+V412qUo/7DUdmwTA/75GYrZGoeR2N95YkKP98AmQyP/LKMMDeh91NgLXZOjy4+QncX/8snLDfZq8EVYZ/fvLMZUI4s3QULut/Nsrifui5PIKf3RzUcyiPJZWMEJIn4/uiJL8yG2V6ERYMrMbCfTW8fUhnvHtIOd47pCteHVSAZ7o4uL9fNW4fvhZhpzOcWJyEEFEPOCmF5dHkUSfRrPJWIF2UReT9EhKJqDJRcWnuB4rjWdSnS1EYKULnuE8ajp2Gk66je5pBlkrNrPgtvl90Iv6zZRWSrLCQYTQkg45lHKGMw6OLKuMYqdLCJGI5M7Q4XvvDUSgvSOCie7cg6yUQ5h9Qhm7tphUbUEeS75QoQ53EOSwMIZJJoy61FJ2crtjGe6CnHZR2LkK98xGMdDXPQ2IrKUA2vAVGdSXqeG0l8UKYmSKEPvwrfhI/GMXDv41HUho2a4W8H2G4qgNFrpImC0KRnyCXHCDAJ8U9m57CvbVPw4t6fgdjzrSEdPbxhz7i4MHK5zB96X3btTUHBNgMQlnUOz4BUrCESIBagYV1DZXoFOlJlRVGyqtC2qulBmugWqul6qlDhEqpKNMJc9fOUQToidqi6yhtcz6hCltZ6JPehquiPVBy37NMF2VnwvbSav/KO76JQfuciBnvRrC+2lKzOWySo5uqg2Vl1EyR2PDf4vfb7sVlkc45AgwjRoJTBEgl5hOgKC0SIF1TIcAQ929dtwgX3VWJR8/tzB/FOLbVr8Crf7kclx45HAN69ON1DsLv5/E8dSwxk0I3LMClZRqGdeuCQb37IHHEFXgtVoYqt5AEGEG6YT02PPNDnHrwAfjdgiwqkltZ3zUoGvpL/GXTNFy+tgBOYitKC/gLHIvwfsgPgdxd/y4r7svxnyC/J0CAXcW8qvl4oOZxRX5qdAQJLxTnXxRNtvPpEQqDR2rm4qnlc3NH+ggIMAeRzC5NOi9khgIMF2+d1oC6rj2w6NwQ6qnWMjIomYrp7g3v4r7N7+ORyqV4PLUG68161DpJFFvF0LN0T1mGUKmQqBpTJ2RFAtDiMofkEHRZ/Ee8ua0TPeUSoTB4JLj5C9M4pqvJ84XQq9hCIffVbF0Bp/MglJf3RjRbjC3mMpQnOmFJUSG6xmLoki5AdXEd0qkqxKIF2BTqzl++CBVoFKYWU9ehI6na/RCmmx4tQ1f+QSy8fDAu2HAxpr63DZXmIngrHkT1xcNw9l0WNiRq0BApRWXsK5iTNrGErvC8Ix/Gede9jN69O6vOlxW//jr+tuRrOOrrNQg1hFFgFCMi56TKdQwTpHTIEGlDuoIzDXT9pd2Qf2ptuLkB9QX4NHi98h3f3SXkR9aN0C8SEpQf3JwJbGk7Z755m99BfX2DShN8aQmw+bOYFyMyrEQIkJRFwnDwy3n/xVlVf8TvXn+UBJhWBCjBD6Tz4lu9D8X/DTgG3xt4Ik7qMgh1bhJFVhEM04ROmS0KUL4X1VMrZVMJanEHkfDB+M1pJh5YUMcvgpI9RAKMvIjnza/hmHIT2PIq7r3mqyiMl2LIISfhrDtXILW6DlFjAzp57+Obie+hWoKy1j2G7ww8H//82Y9w5vCDUFDYCRNvmEsCjMLTYyRALqkaDRKgdM+EIjpJ2kaq/m48/MSVmPGnY3DAgDTsqhJUlffD/W/djDX3/hnrvYEosMrQ0y5H5fptiJLArK6HQa9LoK5yA1WvhaHXPoGbrhiNkUn++SSFAOMq+k3W2wInbEo0QES9CAmQ7niWf2w2r0tRXd5yaKYCAwT4JHgn+ZFa6hbVHh84Mdu21aiS/HbeJM9SaymSDU3v4PnyKsBmD1/+kdT1ECIR6VHlTsvBY2t+ganLTsOvHxqFRGEhwtJTmc2oaXCaK/NaNVAQqmClMmvtwQvX4DdlmzCh7B6kXBNGVHpL+WvE2yztgDI/N+mksGmfc/Dmoy+gb/kWbAjHsOz2v6PwzOOpCLvC4fkPGjANy52P4FXOxwH/vQ5/67YRph3llyqtijZqnAa6uDYqvPsxp9cFuOu9Vah596/A/f/FU9XLqeoaSLqiZEnlZHpWTQUdCNXWoPD1DzFjbF+cphej1EnA0ElYvKzVvctxzitJqksT9eHlVKVP4vxj+qE4XoZzXu6Bayeejk3JbSjjPZBJeSLuHDmHJv3ZcjvlhorbH+Ze3lH+wbWwxhvOJXfLD1DzH6EAAT4JVqe2KLLzp1k68NL8+5LAQrkOEFkq8lMddh422jWoTzfNOvpSEmD+uWv+/Mm6T4DSY8ttPuHZ2FZ0L+6Jo47pg63btiFZVwcvI3fXVgEFxLXNynH0OoUAF66Zh/m4G/VowKIVS3mjJVJz2H/SSUbyqs2km8bhxx6F73x0I6a82x1dsu9g7kM9cPRJEfSUjgwS4OI3J2Bf/RCEikbinnerEX6vP/lYCFBaKK1GAjw2/WNcfdkYJPp2RmRgZxy8oRpG1kIXL+yTE+smw1PyBGgWyS9hiv5pP1hmNWqyJkk9i8KkhxKjHG9RLRrpBujxoajDaMx6k8S7ZRWePkHD8ufWonvfA5FgeUKAKrABy3VIgKI0hdj8AeQ+4QvpyR9cnvh8gvTXm9/3AAE+Dfrr3WBnwkr1Cfm5KVfNg5exr7Kthopxf54ku+slLaZddhwClIdld1vuAWyOpodRpo55MFWodt5ILYSXzqjFyp5dMGvcBjWwVzy+GvLZPrFuCLkO4twuM4DNqayaM3zjSxfhJy8ehdvfn6QGIUvnRUiXbnnhPx2WnUJE64yS0mJMvKYfbnqYimrtM3hy3zNwZrwT9Mp1sGdNx7n1P8fLS9+Gt+1xfP/ASvTo6VAdksi8bWrIS4iM6+px0lWWSsxExHSQ1WWEXoQEWkwXOKq+WBliY5A0JYpLRDOQLQ0hNepI/PLe9/BMshZeqYHqmnqUFrCkd1/G5sN6YpBLNndMdbytG0jTpTav2A/RBx9AZOUmGenIs4ZIriw3yj88z0HUqSPJyihDGaKTV4Ck39x9byI/IUkuabIUVSzm7wsQYNcxvGigIj9peFZTRWlOks8wTYhQ0mW/nfVJcLA+WPUQ59FxCHAPwX/gWkJIUEyIz8zwF0OeXRLg7fMfw43aPzD19f/Q1dVIgCHURHh8IopZyQo8vOld3L1sPh5f8xbSThp1sXU45djTUToohMEDByJRQK2kNRGgbScR0bvgo9phMI8eh/NevhN3z3wMoyaNIU/UY31xKUq0MrqdDTD6lMLasBSr3nHx/paI6smy3Eo1LzdkREhyCZ8AvSwilq0I0KY2EwKUThDp+JC2P4PELZQUpTLzagqhGWdj/6//BhdNnY+VW4DS0k4wF63Gz0f9Bvv+4CcYIsNcSIDqfvCcGSMGa+5i/NvQ8V4iTm3rKQL0SMSRGPcpAqyFzW1JEwWo/qzUD460p/oE1/yu5++3/xEgwCfH8WUjEcryh93is5vS4Sb5N5fi3xvNShsqPe8Oi0dySOG+KIp3RALMPxW704i85shvC9Qjym2Z8RGK8SbyYbc0HQ8v/xH+8NoI/PGxM2EnkrANaWCNwc2SgJIGlVcchShGJFwEL1FIlTYM2UxWdabIlDcZAK0GSPNkMhOiN93aButlHBZxsLVoCA4qfgWXvH4BzjzYwbtYjf4NGjLHjMANzi9wVLwQkYtegnFBCboa79CVzaKXOxb1po0jkzrqUklsGFaNhpSNqup1KF1PMhzKM1ldUE2/3JAXsTshfveFaoC17Rooc+rh1ldi/z+sw5zyV/DLkUNR2vkAREdeAueupZhxUQNqt21FWVajq3sfzu5ShG5lXTHhJ+X45T3fRLduJSTyDHWegxgZtnxtPczSPng3WU6VaarOkBBVagwp1TRgcxvRUlYm5t/uZve8cb15WoAAu4jjexyOr3cZ3ej+CuElTX8p25KupoJSBY4tPBmHlxyAgsKC3NH88+swU+H2wIOww1MotUJI9zlVj0mpbPIXo5AucaHloqasEMdF7kCMxBWPcV/GVPI6TI1l0DQ6hhIn+brXLsT+QzuREEmONNfR+MsjvzEOT+4gIgrQSlG9FVBhFiBNJZehRbPyHg9PqbQYideVwKkhaaegtPckiKoOhwo0nk4gnonDjjKNlkQ1UqFqFHvFyhwSsSPDXdJ1/AXcDCtcTivFE1eF8OLYDGYctw71qRTMRBdYic6IhDJ0jTNwPZkfTPVmkkCzHrS4DNnhVVENmnSJo24KMSfF2tC1oOILU32GeQ1pW0fKMRDWGqhsG1Bk9EDG/DN+UPoKjt72d3y1oFypX9j8CbZlwLf/DahP+eBtb/zj2xN/AAE+F+zumSDV6Rrc/v4DeKByjlJ5MvRFlnkTnFF0CsZ2OgaDu/VGedcuKk3QcQhwT2jR3JVu/6jld3APlY3tSUw8FzESQ5TEsNFZjKJ0f2xOV2ETTRSeK1Ph+E/6d0NuQtkWeylO2u8IFYBABkHLRakIzrl2L5mGpnqjQlSQEjGZZGczr2FLqHru5zEq+IAaJK26MJTJmUhLMKwwwk4YrgRkMEjESCuLeCQpL8rTRbkvAlgNNCpALc6y4njjxpH42u8/wOm3vY9/n1MCNyyv6pQB1DZLlQAMfl2Fp9X0tTDrTJNebofX7wdKtUiSvC+sjx/PkG6EmvPL45Sbz7Iqfo0fHvIP/KPfSfjv/x7EsYkouhhZHmfxPuQbnuV++GtyXfIpf6P5UFwB9j7sibnAMsPjqWUvYO6mt/FRcjW2OdvQQy/FwMRA5faK8isvK0JZpzLqHGkc8vHlIsDWkAcvtyoQ0lHEI78cXOp6HIYWIxFQ+0gUFJv7qQglooquoqowF01mdQgJSJgq1SMqRYjoI5k2H5DZeKPVSfmR+3WSpXQh+ETn054ECuVnY/38Q1hOfskVOXfrXzpB/hiytJp/rKLAaCROqYP01PIMYupkQjz5asiH5FFL+cil5cqWGvrk7P+LkSDFLCpXm+bmouQYJEqxkEwn5H0Q99+VIAlSiFRcwV/6JXNLLjrAXok9GQ1GBjnLOD8Z6iKur3R4SJufuL1FRYW5XE3oMAT4uSiA1qTBD5+sZMltKkAJTSWxW6SLwQ+CIApIV50ScrT/UPOT+RUtsEwJkaWGgqj9Tfvkf9uQY/zdyvIkROTXpDrqU634W/ky8+f1U4lcNokcrdPkvR8yI0Wjuy09yGpgsrzfUxXdeJS/KcumJB+5HSrwa24piQYzhvnLZZNULSpZiQeoC9mpt+RZuXePSPsnTQIm8DApWkXBkQJzaCozwN6IPUmAu4ogGkyAAAF2Kzo0AVI5BAQYIECA3YYgJH6AAAG+tOjICvDz6HoIECBAgA6BQAG2E9JQ8MGKGNZvNVCfkvF9fjO+hIAvSrjoVW5j/0GZpk7OAAECKOwpBRiExN+NeHFBATZVyjSvHaO8zMTJh6UDEgwQoBl2NwEGIfH3ADZX7Zz8BNtqImhIpnJbAb6ImDO5FKWlpZg8J5ewxzEHV5WVsQ6TuRagPQhC4u8BbN3W8sa1hbVrstiwaVtuqy3MwWQ+XPKA+TYao6fNwYrc3o9DRcUczKnIbXzO+Ozrkrs3bTHPnMmN92z73XKckEUFpo0e3XRvRzOtef0qpmHy6KZ903ZS9wkP1uDmUbLW9vfVdGir/XLO3J48Klj30dwn9W7hauXS8+VObqzsKNxU/QAm5LYC7BxBSPw9hAXvZLBipYX6egm82PSnbNseqqtsvLOwHrNmblFvads5JuDBmhrUiC28GuNmjsehk2fn9u0cK24Zj1ntZcvdjN1Tl5EYuWjWdiQyZ9YijBw5ElOmTMCMWa32znkKi6ZcSdoYiDHTp/v3lbZw3CKMv0XmhqpMmDziGuDqhf6+q4FrRrRXYW3/fY1owcJN+xeOW4zxzfZVTBuNW5aPxbjt2Iz1Gb8I4xY2lcvKtrM+AZojCIm/hyD3eNkKEy+/msKTT9fj4Ueqcf/9lbjv7i2Y+fAWvPFqDSzr41ViCwwchUnTp+CIfz+V++OvoDBoUjGjm8mUOVeVYfwMYMZ4URrTmLNV3ttWtFQYbcJXS9P4YKrjWM4cKrnmymh27o9JkFcv+X35B3T7umyft6kc/5yTVV0/jnSGYxyJqyXHzcEsjOM/YsxYTJjRkiDnPEUiGTNQrQ8c6C/lPrbgZpLkjJFTcOWoXL5RV2LKyBmtztMO5L6vka3qsCMMnDQbN08ahcG57ZaYjyXPyrfI2q5YjkV+YoBdRBASfw/ClSAIvLHyng/HppmuUoCOJdu88RJ7bFcxcAzOGrkYy3NcN2hsXsU8iOEzm1TBqJuq8SCVhLhnNbMnUe+0zLvfY7fiOX7JH48ZmImrsVCOu3oJxo+Y2qiMHhw+AzdOz1WELuNEtUvK91XT1Jy62a4u2+UN4U9XPafy+piBRcPknDdTqe0cg8eMw6JmzFQxjQWPHZPbGoWxE5oRF89746KzkOM/te2T8AhMXcLz0Y/NCQBy62B1z3wMxODhudVdBb+vcSMXNX5fcm3jc8Q/Yua+mHLlx12hYBRuXjgFmDkCI+S4qUt47z7+3gTYHkFI/D0F3leJAGML8SnLrZP8hPhsqj9J/7RYMWuir6JKx2PG/OYP2vZonvdfbyzCsp3kbcIEXE1Voshg0DC6luMaldGgYSOb5uiuWIL58/lwj8g93JR88xctV4plO2yX9194Y9GyZnmbnfPjIASzaGquja4Cz84cjrHNmGHU2CY3uOLZmcBZo5vKHTgJs9UPwkJcPWwqJrKQT/CTtIto7gKHlKprD+bcwrqrH56FeJCqd+pEX0kH2DXsPSHxOzgkPJYKlZ9XfMqE9GhqyfRPQoAVz+LR+ftisDzFc27B+EXjfHXGB2PKSD9Lm2id94iWAQY+E0x4UD3YjZZTnm1iu7zfbR/hbYeBmHT1cMwkkXi8NzOHj22pjEbl3WAhR+G/ts4yEKOoJFkIKvIM2IK8K7D8k/qcUqf5w/3vqxUGTjrdP2due4eYMxnjqcJvVj88rCtd5auHX4NbyOu7n7D3LgQh8fcQRP25zdSfLEUB2qYoQV8Nyv5dQsUcTJt4DbzfX9H0kNNVU+CDtmS+v7pDNMu7dP5n/OgooqESy/dO7qzXd1fytgcsbziJ5Dky3LjtXMpRuHLKIsyaRiLCOIwemKf9ClQ0nrMCc3js/LzbO+p0TJgvBONnqOCPxzXzJ7RQlu1C7vuin9umu1ohbY259Z1ClDdJvLGJl677rBkjMWwQPvsfsb0ce09I/A4OUX8+6Ym76/KXRlxfnwRFAbq59Y9HU5tR6YipWDJuIZ6dxL98AR/8KYvGq3ah0olLxLtqAXH/FuU7Hlrl9S5lhs/06RmFmx+kEhs/wq/rxFlYntsjaFGXNvIua1d75I4wCmOHz8R5M8c1te81w0BpJ7zmGgy/moq0kf9W4JaJPLecX7UBUh03tgHm2tym+vWTZs8p7W5z2/77mj2peaWatQFO9TBl+k5Uch501aerJsB8uZSyD05Hi2IDtAt7TUj8jo6hvW/BkOMuQkhLUFo7sDI0WWZJhlmbvzb1aFj/BJ54+Szsv8+A3FEBvmiQgdCzxubHAX5ekJ7zWRjbjk6jLwJ290yQTxMSP1CA7cSvp47F6rdnY+uKhUhWbiTpZUmCGWTqNiNV+SGSW17DxB8ekcv9OaKxJ7S1jcZtKz7n37qd1G1nA5P3NGR4T4uhfnsUMhPkvPa50gEUZHrbj0Z8C9f3vxwnxEeiq9NVDXnp43XBiYkjcFXXCbiw++mK/CQkfnMECrCdkCEwDz28HM8+WYEVS7dg1bJNqsW676Bu6DuwC449sTuOOb4UncqK0KtHee6oAAEC7MlwWF/YkPhfBAgJJlNp1NWnkBEFaMmrjPxXYEYjYRQWxlHMG61LbPgAAQIodOR4gAEBBggQYLeiQxOgl28lDBAgQIDdgCAkfoAAAb60CFzgdsCTeXt7Cju8YtlBU69/lO50rmpMcf0XnHuQAZRhhFybWWz1yklDl9dOhuDKoVqWJpMPo9yI+F3wqkj58Bf+ppTOssV4ErVkOSrdy0/idtXJc69ez1Uk9+ZgKUi9PVjSuWiO3OTX5p/+Qo6U43J14DWq11NyQ5UvxTJdSpV9udJ9U3kE6kj1z1/3c/ivAOW6/58m+3LwD+QydxS380t5F7AqW5bGx8dbDPDFRECA7YDn7gECbPNK80+oQD2a6qmUNXn/ryYkFMuiti6MiqVA1dYyVHsOaoQAdZcE6KJrYQjdCjQUJurRp5cOHsXj/CfdJ0GWx4XLspwQ9/J4jRSj3tvLfLYjARaYZnCfzj3yXl2Z3qNFaCRdz+LBFnQjwnNGmN+i2QhrGsLMb8sgbZmpIu/kpclbiaUOIR4nRO2QtMUUlSqCJIHT1KXTHHl3ryPvEAYMmrw2XUjdYKV1ErHUVo6QF8Brcm/keoQhNYO8zLPJS9CFuEMkMV6fnFPK91gn+WXweF2eLu9Xlk05qclbY8Pgj4SYw2uRH4AAeyf2FAF+sUPiu/J4fL7wbwQ/+SzKuk7y0UlCDZaN998pwPJV29Rja4SLEOZDrfN51w0PJh90se6dq3DUiGJENNKNRgJgIc0J0GZ5VihCKjJZikXy1BWBpdVA6iyMGPfFqRzNLI0kocd9c5JkqSQi0SJlGTNNyyARNmg61z1kJCCD7sChRUi0pEqEnBQ0J82zFfBsCZKtpsgxhCxJmOdg3T2ddGQzxQohbtCUoiVR08L8TiL8YcqQADMkNp3XpWsyqZwaj4SpXrJu8B65JsuzSPBREnyM6xmSYJq8zfJN5o/ymqLcJ0Qrt9dL8Z6keJ+KENUKef60JKq7H2Dvw+4mwL0jJL4ok8/DhO3yptJ4S7hUN1HUEBVeXLewagtvZLSUoixBd42KhuQnMSUyMj1OxKurY2NVHA3VG/ksW+oLUI+0lMOyxUTkRFkeOYffTAiFdx2J2PdfVOQYJRHS0YZFNSTqyyNFiii2TRuRCLdDKWxJJWBbSea3qBRZBFVXxnJgy48Hyw6bBUiQONcXpGFki9GwYTlJkV84iUmnEisr3QYzFcfr69JUn+Ki62r6nkYXP65FSZgRZM0wUsmN2BYqRUQvI/FRkYqrT2Up4k2u2RMipfqTk1LMkthYT5GEtLAoW7lw3qDX/nQ8uvTsgXMfoRLNmuiSjZEUU3Bsk+ZgS6gAWoPDIz4N+cmsCRlM3d4ApwH2NuwVIfFVW9huN/88uTPmFpLoL9U+ZUKCpCMuHD7NCSHAzUm6wgY90ghC0hTI558aDxk+/XJPpR1rY1UMDVUbSICm3yYoxUrhOVLVWZZPgNxJAqwVWZ6sJlkAMRJgiCrIIuuJSiLLklhk3rFFQqrFqlWLsWyDuR0BZqlOfQKUFspqJIyX8M/QMCSufQCpYftQdcovHgmQLLvpiV+iR68DsDjJbRKexwtUBEgijFOZhtwITBLgxg2LsGB1HVL1ohVDVHbiGrNSUj+prLoWcXVJjvSkpZ5iOdrmHxXXWObmzUtw4UwPD15KV5n1urRcR7/eXdG36+HoXT4el932FBYV+pPUm4gsZx8XnLVx5sgo3FzzYOtp0wG+JAhC4u8Ccl0I6gEWXmpc+h/bwZNAB1RgydpCLF9cgIoVHmrq69CQytJtJQGSGUJ6GDXVGiqWefj3P1+GRlUj6kfatRQxkPzkrGESW6SwkKrORPXqlYiV6Uh125+nLlIEtC5ciGK3AaVaGapIQMnCEnQpL0GkWEd9tDOW/fFs3LdkAywrAa+IqpScV72tFqVGGpUFpSQ4qiqycIrEVI2B2G/hE6hPdaGb6cEtCCPdJYEFN67EUcdmke3dCetqVyIe7wwnE0VRWSfoBSmkk1tQXl6HD6ZOxLsfetjSbTVCqU50OWJUbJ2QrqWKpALekmlAorgQ6chGdIrEUF3/IcqMrtiWqUaK7qxFQtZIqPTGlXusm1y3M6zXSDyw3sWatW+iYfEfcPSjZ+PoK55BiZ4nuuax9Rbh6/mgqhXTMHF8y+Cs4ycG8fMCBCHxPxsoMmy2mnsepRHfJQGGIyQyrQ4VFUm880YELz/n4OlHknj4v1vw72mr8OgDFZg7ZwVKC0YoAvRIgNKR4fKGS4dCiEuDaq1y/Yt46y+XYfyBByEePgY//cvr3FtERWigk/kBHvjp11lGOYYecAy+Mm0hqrakEU6QHL9biAsedPDvy4ag8+hfY2VlBZ7+0WgcuP8hCJUehPNufo8kSnXIiidJgNGykbj4rKX409Pb+MtH8k1+BGPTY7jvoOMw2uuE8HoLda/+Hv2iGvr0Ggb9wHPwdKYEXcsTeGBST3zjvir87vxS7HfMTHzYLY3/PTEBp3cKoVef/oge8m184JSgsrYKxeYmXFl8Jq7/5Q2sx/ex2C1UBGjzekP8g9OcOAkwC92KwrCzKA+PQNrcgE5F3RDpcyR+O+0ODJhxDx6mlt4pJODqhLHIxW31Q9pjJtoZezTAXowgJP5ugpCgvPQ8SvKTXxHT0WBaDjJWFqZtUf3RVaWy87SQagOjJ0p31EImm+bNdhAOG8ptFGUmPb4ey+i1JoMf/KIQkxe9CWf1kzit91aE6V6LM72lUzX2G/FnLHLfhFf9Kg7892/w76K1KKqxcNRdHh49N4Qz7qmH98zlOKh4EEZ+5S58uHoTNmcfxFG3/xPzYl3glRYgxspoqMXg007Gf594EYhvRKG5Dxb/8xfYNOoSlNeFkdrwLfzob53x+8fXoiK9GhuuLcG1V0zDepTjzClb8fo3gPP/9RHef2EyDvrwenzvmn645s0sttUswKs3Orjtmx+iji56jfYqqrwnET/sOixI34JEpBLRcEINDUIoS0VqwdSohPlXJr3Apm3yvsjdAInSQ2RwV5x1YgofrsxPUG8WWmrmcPzuilP95Fz8vKZwgxLPz18P8OXG3hMSX6Tq7rYdQARfTvS1gAwJiYaFAElwjo4sXWJFgI7lt9UJAXKndFoIAZpUixkzxRvt+g2xJEBDhqLkCHDD2n/hw0nfwFk9+qOO7vDJh3T3CZCua7faYdj05o8xKDoYoeJjcO87DbA+6I0tIRvZzdXIJoCuLqmttBs2Vy3GK09ciP17FaBb+GT8Y+UHePPdJMINtiLA2mqev++FuOnt3+Cv87vjo04v483HR+NXw9dgU9xAZJmGeS/fim9+7QAMjxej54THsXxhGltrKmFFLayI6ijqNhCds7XQF9XgnSU34pzDC9ClbF8cc+ZDeL3qZdTr4mbsixJciBMnHIDBdJ9HGN0RMxLQNd44RYA2LJoiQLolJu9F2OD94v1MsZ4NXmeUJqtQ4MpfrKC5Cwwsnb3ST87Fz5uai583cdYw5mw7KnOALxf2mpD4zaXq7rIdIU+NrXNYfEhTpkviI9m5lNVCZVqU6SFkMyTBDOV2VqeFeJN5ANMNuqDS6ieFqXF/JAObS5NpTt9e6Fy9BRv0BAm0Ht37lCOtXEaqtnu+hVM3XYZnFr8Pb9tD+NmIKvTpyi+RX2YDSRhhlmezjDqgx5PX4fzFl+KZdQ6s9c/hmq99CM2griLhCtEyBzYbB+AHfy7HjbNexZD563Hv/keTMA5knhWIVPaG84PHkd62EGt5DXWbX8LG+T/B4AQJ0CihumW9U0kUZG1oUQM9xj+OdyqXwXQ9VK6sxUdvfBXD61wkUtW8rkJeZwSaDI2RX2FXesDlp4H3lR86fyzkz8zRYojzJ8ONlMCJc7ugAQ0vvYGH3xuIgcPyBNiEgZPGIvRoU3j5gZNuzr3vowazxy7BDHGJc/sCfHkRhMT/jOCTIAmk2T8Z25fMOj4ByoBiEpmMdbNsTRGgmSXnCQFmSHLyDJMEhABD0uvLh186XVy6fjbdZIvEZOiF6P/sG9i2UVzoBtx+xzS4Vpq0AMT6HobO5VFkunZB/foV2PKeh8UbdXhZCw0RKsio9LiSAOtD2FZ4DL/5LuhSXAdn4zxkZx6BkOYToMjVrnSpu2VsrD72Upw7ewEef+2XmDDpfGibV8BLdYX2jcG48N+3YPpDHkrqNiK7tgKz59ehODEUVjhOguf1kACNLoVIHT8Ipz70czz6UgOqqqhKN7+MF9/oAifmoEGrhqUXqXsSyhGgSwJ0SegCqZJPgPyByBGgF4nBqKxF7IMPcNc1VwE//i5ONGVITUtUzJmFGcKirVAxZxpGj1/UzrevBdjbEYTE/8yw/dMW5t1J6BqKy0oQr48jYRXDNmvhWCk1E0PGs9l2lusZKroMsjXvqjGCIRIepZiaLeFZMsxEZow46FH0a9x3YxKnDyvBkJ7fwrLacTgsKjM0PITPOBWT3r8YX+8yAMWXvY3QeeXoqq2HEeqNcn7BRx17MdJXxtH9rL/ipeOG4tZFE7FPnPX6YQVqfphGWbQIyaSNhJlAZngN1dpWWO+NwRlH3oHxD/8cJ+xbi5o1m6noOmFl5HxM/3/98a8bDkO8a0/sf8rb2NinDkudKujZBnzrO9di2aV9YBzyR1TGxuMP9/XCq+eciO6de6L7L+7CVqpCmcvRXTsVNc4mHE3ys0j0FI5M9f/QXJKo2tbKACNDt9jEEjyJs+kCd+82GJ0P+xHe/9bb+N8PB6GIPyg+moeXB343bWJjeHmJ1OynL8G4hbOD8PEBFIKQ+J8J/FvQ/EbIfFjpuZWBvdV2EgcNuRuD9vs69HIXmVQImSRVUpYuH83MSHToLMzaeZj93GkYNKi/6kCRXx3HddRsNpkxYlsRkmcEetiiy0p57lDh0UIhaQcsIhFmaUz3DNbFoLLKUHWKtIwr4xmhh1hmSMjGQIhfqpjUXKaiWXqEFkWE7nqEitXmUuog46B0mWYn09Royp2XAXwatSdlmgyADtkRni9FS7O0CMuMknxjPB8Vr5emZahuSeRUmY64yJ7Gfdzm/REX34K4/o44+iySdXPDeOxHxXj+DA9/GUsOTG1gmTLWUcjON9OI0KKIOibrINfxSbF3hZDf27C7Z4IEIfE/MeTmNNFevi1QEBL3leRkkbAKY2X45a9HYcuGF7Bx0Tq4WzMoRwGMWhtaHX9ttq5BtmERrvzh8WhIUn1ZJC1pixMlKF8GlaA83zIAWgZCa6KQuC0BFtRcY+axQFeY5KY6VfityJg+mXGhkYCUZyvTzaRInYqRBYbMFGtJlzMSVj2sniZ5pamQBCRtgWpgtZTPPwh1oFAVy5ZR1uqPRBx05pEpLTyPp0tXjb9f2jAjuYHZTm7eMulRDkOalZMUqTeTSOg8l4z3k3smc4FlgLXcOy+LHj32wcPnhnD+vZt4PdwnHScGyZ1li+hTA7rtFO+PNAJ8Ugj5jQ9CyH+JEYTE/8TIXbosyBE+citcuCaJxSQRxKi0aI/cX4GHH6jAhlWbsH7VZmQp3Hr27I8BwzWcPHYADh/pobywG/r1H6CKFPWlAhvIFkkrQikYJYFlmJblPoPrMqXM80wkqfRUaACZASLHkhxlNIkES1CRcniMHqEiC8fgZBqoPJNwYwm40QJfCVLmC+GFVA+sPwDUo3vuWVmEeFyIx8k7jT2aRsWpyVxlEplHRegJfXEps0xsuvcx5o/TTJs/APwRMKhMjVAWSaq+JOsVJ4HFNKpQ02L5vAlhEltYSFgIkNdjyTzgNOJGGAla2uWPhEtdaWhqDrV0Lpk0YU6PvwS6zB9WyjDA3og9GQ0mCInfbrQiv/xSfdBkIQ8pH15FKKJY+OBX19UhJTNBklnkX5EZjWk0HcUqJH5CkYBSQyQ9keBKgEmRLonGk6godEFJQKQ4pgsBMYXnoYPKbVFiTGF9FKEJkbEMjwlCiAZN9UaTjBwJTEC1Jz2wujS4SZ3lQnJLUVZCMFIfv07ippL0hHhEtrWCpEnsF3FTxXSqQ00GdVOp0cHm+eg+SzrLlskbMsBbjJyo6iyRYYRIlbwVk3tA+qR/q1x0qZdUTZStkK86inWUegXYe9GRw2F1mJ9dFWaJKsfKZlCYiME2syiIU4Vk0ipNtoVcJE9RQYJpabUvm04hEYvCkugoXMq2maFxf1GBRFLJ5ef+FvmzWS5jyEpahvtYfiF/JVzPRmFxnG4sy3f8MX+FhYVwTA+FkSIU6AmUF3dGv569cejB+2Ofof1x4P77oXOnLohG5JWZQFGiCDwhlwWst/QW28hkHcRYvulmEWd9svyFkn2u9JKKb5l1UUBFl2b9pE4WXdyigphSccW8Dpf1M1nnZCaLaJznsVkv5neSvDdp1jXbgMICup8sz78/Jsvg/WTxBayPze0CusuZZC3MFBUkz1GcIFlTXRYVFDI/fzFNh/l4nXHp7HEQTUTRYNYhbfP+8MeglL+gYZZfxvrYWf8ep1mvuFwnfwjirFeG9c/wJmTpShcWF5HoTPWeFJnTnE6m+IdbR4VJh5rXJd9vhvfepkoNEOBzAdVFhwElq1pSwqplKplSyzySST89v8xjh+m5ctqbvyGfnmqVP9WglvX19WqZR778hvq0WuaRyuVvyO3Po77Bv576Bn+/RQnZHKnc/jwacvny58kjmfLPl1/mkUxlcstW6bn7mEq2qmfufMlW520qv3V6Ln/r+5nL35BbuuqzaTvVupz8fW51XQH2Trz11lu5tY6H0B//+Edx/nD11Vdj6tSpihSD9WA9WA/WP6v1k08+GS+88AJOO/Nstf1pccA+g/DBRytyW58OofcWL1cEGCBAgAC7A2ayJiDALzqkmW7tlk6ori9AOmvAlU4HQtNcxKM2yoqS6NO1CiHVAREgQIA8hAClE+T9z4i0dkSA89Pv4T3rPSzPrsNWays6650xTOuH/RL74ciCg3O5WiIgwHZi0coeqGlI5LbaRnFBEvsN2BSQYIAAzbC7FWCD3YCnGl7A085cFQ8wP3KieUj8UyLH4Owup6M4Upw7ykeH6QXu6KhJ7pz8BPUpqsO0zNz4/PDK9YNx4L6D8euXcwkdCvPwa9btwH2vxcvyBxogwGeAWfXP4yn7BSAGPwpTzpqHxJ+V/h/u3jhLEWJzBATYTmzb9vGzFdauyWJbVU1uq22sWTMPr6zJbXxCfFwZ596+HNcdJ2t5wsnbebjkP/PQdGir/RduT0xrXr4Wl3DfdoS6ZgZ+fWHTcXc1r88O952A6xbfgXO5FojkLxekU2R34I3Uu5hlPd+ukPhzsq9g3oY3ckf6CAiwnVjwTgYrVlqor5fAi00kIYOhq6tsvLOwHrNmbuE+N7enbay541t4YXVu4xNi18o4H7ctXo73xJ79HkY/8y2ccf283D5B0/4nT1uK7//qpVw6z/Of8zBj5SiMPi+X0AgS55jfApOe94+bBPxxzLV4Jb/vtN8BE59rY1+ALyvyPcKfNT5IfuC7u4S4vh8XEv+t2g+QSsk0Uh8BAbYTco+XrTDx8qspPPl0PR5+pBr331+J++7egpkPb8Ebr9bAsnauEsU9/e4DwEOXizKaoZSYUljDm9RSE1Gsxl3NVdRq/0tuq4x2o+8JuOgP1+LgB+a0i5D6XvIArrvkBPTPbTfi5Tl46JBrMeG4fmqz73HfwU8OuQ8viErkvocP/gUuPc4/qsW+AAE+Y3xo+m2B7Q2JX+FVINOsmSogwF2A63rqxrpUeY56YZKrFKBjybZMi2vpPrbGsTcsx21UU+KivnfPBPSlq3jtNODyp5c1qqXb8+rs5X/gj0OuxZOizv7wHRzfz/8l264MlboL6HsSRh+yFKsamfM+fFdIlnbGM0Nx9WXH59I/BkMGNDt3P/QfklsV7GxfgC8ldpcLvC5b6T+TNGnf+7iQ+JvdOmSzTTOPAgJsL3hfXbq+8hpJRX5CeLIk+Qnx2VR/kr5LWL0c77xNAjptiE9Al9+Hd5at9FWdKCcsx0sv09ft22/Xia7daO4CAxXzdklTBgjQLuwuF7gPuuxSSPxS/kvz2c0jIMB2wlG/MBLGKqf4lAnp0dSS6btKgILz7sC7i3wCUtao6vrhoht+i4voZd51vXQk7Fxdthtr5mL220PRvw1G7XvJKODZue1zq/NErbAaq5blVgU72xcgwGeIIbE+ivzaGxJ/KCkzLhFFcggIsJ0Q9ec2U3+yFAVom6IEfTUo+3cJx43CuQ/8DXe/vMrfbtG7uxprZJ3qrz+WYvaLn7LnRMDy7/rZb4FrvoNjc0nNsUba79rDs1Lvt3+LGaJOiTXirr99Pk6WnmfuO+ed3+HfuWtqsS/Alxa7ywUeER+xSyHx948ORjQazR0dEGC7IerPJz1xd13+0ojr65OgKEA3t/5xOPbU87G8sQPjBFx3+1DMmXiq39nxsznIUSGZYy6u/ZnfNvfdZUPxnYv9DgdByzI+Dk1tfAeO+RsqTnse/7mkqawWbYDT+Ic65dJ2uNus97PXAtNOaTzuJ8/+Nkeq3PfML4Dp/jW13Bfgy4rd5QKPLDsQX0mc2K6Q+KcYR+PgxD6IxWO5o4OZIO3GKYffg6HHXYSQJiGvHFgZmiyzJMOszV+bejSsfwIznjgFA/r1zB215yG9xC+cmh8H2BEhYw/n4ORFv8GxuSEKAfZu7O6ZIHVmHe5d9TSeTr2oVF5+JkjeBKeGj8GJBUeiX6duKC0rVWmCQAG2Ez/85YlY/fZsbF2xEMnKjSqeoJXJIFO3GanKD5Hc8hountT2fMM9DRki03FngnwLD3Et+NX9cmF3ucACmd727UHn4opOF+Eo/WB0sbpAMzWU2+U42jgElxeMx9mlJyvyKyouyh3lI1CA7YQMgZn9zHq89Nw6rK6oxNoVW9RT3GtAOXr264SRR3fG4UcVori4AF06N/3CBAjwZceejAYjg5xlnJ8MdZHeXunwkDY/cXsTEgC4FQIC3AVIWPp0JsubnIEpPU62DHz2YOgGwmED8XgUBYk4NIl/HyBAAIWOHA5Lk8KeeeIRZcH6ztcPHD4YLz3/FN567QWMOelILH7nf7TXcNrJR2Lh63Px6txncBDztHVssB6sf1nXBbvTBf40CHn5VsIAAQIE2A1YsGCBigfYERG8GD1AgAC7FR33rXDA/wcBDIVtPEMBOgAAAABJRU5ErkJggg==;" vertex="1" parent="1">
          <mxGeometry x="330" y="680" width="320" height="179" as="geometry" />
        </mxCell>
        <mxCell id="jQ_F4X4jPVcK3Z4kUpJE-4" value="" style="endArrow=classic;html=1;rounded=0;entryX=1;entryY=0.5;entryDx=0;entryDy=0;" edge="1" parent="1" target="jQ_F4X4jPVcK3Z4kUpJE-5">
          <mxGeometry width="50" height="50" relative="1" as="geometry">
            <mxPoint x="770" y="700" as="sourcePoint" />
            <mxPoint x="720" y="700" as="targetPoint" />
          </mxGeometry>
        </mxCell>
        <mxCell id="jQ_F4X4jPVcK3Z4kUpJE-6" value="PLC" style="edgeLabel;html=1;align=center;verticalAlign=middle;resizable=0;points=[];" vertex="1" connectable="0" parent="jQ_F4X4jPVcK3Z4kUpJE-4">
          <mxGeometry x="-0.4215" y="1" relative="1" as="geometry">
            <mxPoint x="-2" y="-2" as="offset" />
          </mxGeometry>
        </mxCell>
        <mxCell id="jQ_F4X4jPVcK3Z4kUpJE-5" value="" style="rounded=1;whiteSpace=wrap;html=1;fillColor=none;" vertex="1" parent="1">
          <mxGeometry x="340" y="688" width="230" height="22" as="geometry" />
        </mxCell>
        <mxCell id="jQ_F4X4jPVcK3Z4kUpJE-7" value="" style="rounded=1;whiteSpace=wrap;html=1;fillColor=none;" vertex="1" parent="1">
          <mxGeometry x="395" y="799" width="175" height="60" as="geometry" />
        </mxCell>
        <mxCell id="jQ_F4X4jPVcK3Z4kUpJE-8" value="" style="endArrow=classic;html=1;rounded=0;entryX=1;entryY=0.5;entryDx=0;entryDy=0;" edge="1" parent="1" target="jQ_F4X4jPVcK3Z4kUpJE-7">
          <mxGeometry width="50" height="50" relative="1" as="geometry">
            <mxPoint x="770" y="829" as="sourcePoint" />
            <mxPoint x="690" y="750" as="targetPoint" />
          </mxGeometry>
        </mxCell>
        <mxCell id="jQ_F4X4jPVcK3Z4kUpJE-9" value="Data Blocks" style="edgeLabel;html=1;align=center;verticalAlign=middle;resizable=0;points=[];" vertex="1" connectable="0" parent="jQ_F4X4jPVcK3Z4kUpJE-8">
          <mxGeometry x="-0.1186" y="-1" relative="1" as="geometry">
            <mxPoint x="28" as="offset" />
          </mxGeometry>
        </mxCell>
      </root>
    </mxGraphModel>
  </diagram>
</mxfile>
